<?xml version="1.0" encoding="UTF-8"?>
<!DOCTYPE svg PUBLIC "-//W3C//DTD SVG 1.1//EN" "http://www.w3.org/Graphics/SVG/1.1/DTD/svg11.dtd">
<!-- Creator: CorelDRAW X7 -->
<svg xmlns="http://www.w3.org/2000/svg" xml:space="preserve" version="1.1" style="shape-rendering:geometricPrecision; text-rendering:geometricPrecision; image-rendering:optimizeQuality; fill-rule:evenodd; clip-rule:evenodd"
viewBox="0 0 8499 2684"
 xmlns:xlink="http://www.w3.org/1999/xlink">
 <defs>
  <style type="text/css">
   <![CDATA[
    .str0 {stroke:black;stroke-width:3}
    .fil3 {fill:none;fill-rule:nonzero}
    .fil0 {fill:#E5E5E5}
    .fil1 {fill:black}
    .fil2 {fill:black;fill-rule:nonzero}
    .fil4 {fill:blue;fill-rule:nonzero}
   ]]>
  </style>
 </defs>
 <g id="Layer_x0020_1">
  <metadata id="CorelCorpID_0Corel-Layer"/>
  <polygon class="fil0" points="0,0 8499,0 8499,2684 0,2684 "/>
  <polygon class="fil1 str0" points="2957,461 2950,461 2950,1014 2957,1014 "/>
  <polygon class="fil2" points="882,867 882,509 1140,509 1140,551 929,551 929,661 1127,661 1127,703 929,703 929,825 1149,825 1149,867 "/>
  <path id="1" class="fil2" d="M1179 867l94 -135 -87 -125 54 0 41 62c7,11 13,20 17,28 8,-11 14,-20 20,-28l44 -62 53 0 -88 125 94 135 -53 0 -54 -80 -12 -19 -70 99 -53 0z"/>
  <path id="2" class="fil2" d="M1459 966l0 -359 40 0 0 34c9,-13 20,-23 32,-29 11,-7 26,-10 43,-10 22,0 41,6 58,17 17,11 30,27 39,48 8,21 13,43 13,68 0,27 -5,50 -15,72 -9,21 -23,37 -41,48 -18,12 -37,17 -57,17 -15,0 -28,-3 -40,-9 -11,-6 -21,-14 -28,-23l0 126 -44 0zm40 -227c0,33 6,58 20,73 13,16 30,24 49,24 19,0 36,-8 50,-24 14,-17 21,-42 21,-77 0,-33 -7,-58 -21,-74 -13,-16 -30,-25 -48,-25 -19,0 -36,9 -50,27 -14,17 -21,42 -21,76z"/>
  <path id="3" class="fil2" d="M1736 867l0 -260 40 0 0 40c10,-18 19,-30 28,-36 8,-6 18,-9 28,-9 15,0 30,5 45,14l-16 40c-10,-6 -21,-9 -32,-9 -9,0 -18,3 -25,9 -8,6 -13,14 -17,24 -4,16 -7,33 -7,51l0 136 -44 0z"/>
  <path id="4" class="fil2" d="M2080 783l46 6c-7,26 -21,47 -40,61 -19,15 -44,22 -74,22 -38,0 -68,-11 -90,-35 -22,-23 -33,-56 -33,-98 0,-43 11,-77 33,-101 23,-24 52,-36 87,-36 35,0 63,12 85,35 22,24 33,57 33,100 0,2 0,6 0,11l-193 0c1,29 9,51 24,66 14,15 32,22 54,22 16,0 30,-4 41,-12 11,-9 20,-22 27,-41zm-144 -71l145 0c-2,-21 -8,-38 -17,-49 -14,-17 -32,-25 -54,-25 -20,0 -37,7 -51,20 -14,14 -21,32 -23,54z"/>
  <path id="5" class="fil2" d="M2164 789l43 -7c3,18 9,31 21,40 11,10 26,14 46,14 21,0 36,-4 46,-12 9,-8 14,-18 14,-29 0,-10 -4,-18 -13,-23 -6,-4 -21,-9 -45,-15 -32,-8 -54,-15 -67,-21 -12,-6 -22,-14 -28,-25 -7,-10 -10,-22 -10,-35 0,-11 3,-22 8,-32 5,-9 13,-18 22,-24 7,-5 16,-9 28,-13 11,-3 24,-5 38,-5 20,0 38,3 53,9 15,6 27,14 34,24 7,10 12,23 15,40l-43 6c-2,-14 -7,-24 -17,-32 -9,-7 -22,-11 -39,-11 -20,0 -35,3 -43,10 -9,7 -13,14 -13,23 0,6 1,11 5,16 4,4 9,8 17,11 4,2 17,6 39,12 31,8 52,15 65,20 12,5 22,13 29,23 7,10 10,23 10,38 0,14 -4,28 -13,41 -8,13 -21,23 -37,30 -16,7 -34,10 -54,10 -34,0 -60,-7 -77,-21 -18,-14 -29,-34 -34,-62z"/>
  <path id="6" class="fil2" d="M2414 789l43 -7c3,18 9,31 21,40 11,10 26,14 46,14 21,0 36,-4 46,-12 9,-8 14,-18 14,-29 0,-10 -4,-18 -13,-23 -6,-4 -21,-9 -45,-15 -32,-8 -54,-15 -67,-21 -12,-6 -22,-14 -28,-25 -7,-10 -10,-22 -10,-35 0,-11 3,-22 8,-32 5,-9 13,-18 22,-24 7,-5 16,-9 28,-13 11,-3 24,-5 38,-5 20,0 38,3 53,9 15,6 27,14 34,24 7,10 12,23 15,40l-43 6c-2,-14 -7,-24 -17,-32 -9,-7 -22,-11 -39,-11 -20,0 -35,3 -43,10 -9,7 -13,14 -13,23 0,6 1,11 5,16 4,4 9,8 17,11 4,2 17,6 39,12 31,8 52,15 65,20 12,5 22,13 29,23 7,10 10,23 10,38 0,14 -4,28 -13,41 -8,13 -21,23 -37,30 -16,7 -34,10 -54,10 -34,0 -60,-7 -77,-21 -18,-14 -29,-34 -34,-62z"/>
  <polygon id="7" class="fil3 str0" points="882,867 882,509 1140,509 1140,551 929,551 929,661 1127,661 1127,703 929,703 929,825 1149,825 1149,867 "/>
  <path id="8" class="fil3 str0" d="M1179 867l94 -135 -87 -125 54 0 41 62c7,11 13,20 17,28 8,-11 14,-20 20,-28l44 -62 53 0 -88 125 94 135 -53 0 -54 -80 -12 -19 -70 99 -53 0z"/>
  <path id="9" class="fil3 str0" d="M1459 966l0 -359 40 0 0 34c9,-13 20,-23 32,-29 11,-7 26,-10 43,-10 22,0 41,6 58,17 17,11 30,27 39,48 8,21 13,43 13,68 0,27 -5,50 -15,72 -9,21 -23,37 -41,48 -18,12 -37,17 -57,17 -15,0 -28,-3 -40,-9 -11,-6 -21,-14 -28,-23l0 126 -44 0zm40 -227c0,33 6,58 20,73 13,16 30,24 49,24 19,0 36,-8 50,-24 14,-17 21,-42 21,-77 0,-33 -7,-58 -21,-74 -13,-16 -30,-25 -48,-25 -19,0 -36,9 -50,27 -14,17 -21,42 -21,76z"/>
  <path id="10" class="fil3 str0" d="M1736 867l0 -260 40 0 0 40c10,-18 19,-30 28,-36 8,-6 18,-9 28,-9 15,0 30,5 45,14l-16 40c-10,-6 -21,-9 -32,-9 -9,0 -18,3 -25,9 -8,6 -13,14 -17,24 -4,16 -7,33 -7,51l0 136 -44 0z"/>
  <path id="11" class="fil3 str0" d="M2080 783l46 6c-7,26 -21,47 -40,61 -19,15 -44,22 -74,22 -38,0 -68,-11 -90,-35 -22,-23 -33,-56 -33,-98 0,-43 11,-77 33,-101 23,-24 52,-36 87,-36 35,0 63,12 85,35 22,24 33,57 33,100 0,2 0,6 0,11l-193 0c1,29 9,51 24,66 14,15 32,22 54,22 16,0 30,-4 41,-12 11,-9 20,-22 27,-41zm-144 -71l145 0c-2,-21 -8,-38 -17,-49 -14,-17 -32,-25 -54,-25 -20,0 -37,7 -51,20 -14,14 -21,32 -23,54z"/>
  <path id="12" class="fil3 str0" d="M2164 789l43 -7c3,18 9,31 21,40 11,10 26,14 46,14 21,0 36,-4 46,-12 9,-8 14,-18 14,-29 0,-10 -4,-18 -13,-23 -6,-4 -21,-9 -45,-15 -32,-8 -54,-15 -67,-21 -12,-6 -22,-14 -28,-25 -7,-10 -10,-22 -10,-35 0,-11 3,-22 8,-32 5,-9 13,-18 22,-24 7,-5 16,-9 28,-13 11,-3 24,-5 38,-5 20,0 38,3 53,9 15,6 27,14 34,24 7,10 12,23 15,40l-43 6c-2,-14 -7,-24 -17,-32 -9,-7 -22,-11 -39,-11 -20,0 -35,3 -43,10 -9,7 -13,14 -13,23 0,6 1,11 5,16 4,4 9,8 17,11 4,2 17,6 39,12 31,8 52,15 65,20 12,5 22,13 29,23 7,10 10,23 10,38 0,14 -4,28 -13,41 -8,13 -21,23 -37,30 -16,7 -34,10 -54,10 -34,0 -60,-7 -77,-21 -18,-14 -29,-34 -34,-62z"/>
  <path id="13" class="fil3 str0" d="M2414 789l43 -7c3,18 9,31 21,40 11,10 26,14 46,14 21,0 36,-4 46,-12 9,-8 14,-18 14,-29 0,-10 -4,-18 -13,-23 -6,-4 -21,-9 -45,-15 -32,-8 -54,-15 -67,-21 -12,-6 -22,-14 -28,-25 -7,-10 -10,-22 -10,-35 0,-11 3,-22 8,-32 5,-9 13,-18 22,-24 7,-5 16,-9 28,-13 11,-3 24,-5 38,-5 20,0 38,3 53,9 15,6 27,14 34,24 7,10 12,23 15,40l-43 6c-2,-14 -7,-24 -17,-32 -9,-7 -22,-11 -39,-11 -20,0 -35,3 -43,10 -9,7 -13,14 -13,23 0,6 1,11 5,16 4,4 9,8 17,11 4,2 17,6 39,12 31,8 52,15 65,20 12,5 22,13 29,23 7,10 10,23 10,38 0,14 -4,28 -13,41 -8,13 -21,23 -37,30 -16,7 -34,10 -54,10 -34,0 -60,-7 -77,-21 -18,-14 -29,-34 -34,-62z"/>
  <polygon class="fil2" points="3306,768 3306,529 3467,529 3467,557 3338,557 3338,631 3450,631 3450,659 3338,659 3338,768 "/>
  <path id="1" class="fil2" d="M3617 746c-11,9 -21,16 -31,20 -10,3 -21,5 -33,5 -19,0 -33,-4 -43,-14 -11,-9 -16,-21 -16,-35 0,-8 2,-16 6,-23 4,-7 9,-13 15,-17 6,-4 13,-7 21,-10 6,-1 15,-3 26,-4 24,-3 42,-6 53,-10 0,-4 0,-7 0,-8 0,-12 -3,-20 -8,-25 -8,-6 -19,-10 -34,-10 -14,0 -24,3 -30,8 -7,4 -12,13 -15,25l-29 -4c3,-12 7,-22 13,-29 6,-8 15,-14 26,-18 11,-4 25,-6 40,-6 14,0 26,2 36,5 9,4 16,8 20,13 4,6 7,12 9,20 1,5 2,14 2,27l0 39c0,27 0,44 1,52 2,7 4,14 8,21l-31 0c-3,-7 -5,-14 -6,-22zm-2 -65c-11,4 -27,8 -48,11 -12,2 -21,4 -26,6 -5,2 -9,5 -11,9 -3,4 -4,9 -4,14 0,8 3,14 8,20 6,5 15,7 27,7 11,0 21,-2 30,-7 8,-5 15,-12 19,-20 3,-7 5,-17 5,-29l0 -11z"/>
  <path id="2" class="fil2" d="M3678 716l29 -5c2,12 6,21 14,27 7,6 18,9 31,9 13,0 23,-2 30,-8 6,-5 10,-12 10,-19 0,-7 -3,-12 -9,-16 -4,-2 -14,-6 -30,-10 -22,-5 -36,-10 -45,-14 -8,-4 -14,-9 -19,-16 -4,-7 -6,-15 -6,-23 0,-8 2,-15 5,-22 4,-6 9,-12 15,-16 4,-3 10,-6 18,-9 8,-2 17,-3 26,-3 13,0 25,2 35,6 11,4 18,9 23,16 5,6 8,15 10,27l-29 4c-1,-9 -5,-16 -11,-21 -6,-6 -15,-8 -26,-8 -14,0 -23,2 -29,7 -6,4 -9,9 -9,15 0,4 2,7 4,11 2,3 6,5 11,7 3,1 12,4 26,8 21,5 35,10 43,13 9,4 15,9 20,16 4,6 7,15 7,25 0,9 -3,19 -9,27 -6,9 -14,16 -25,20 -10,5 -22,7 -36,7 -22,0 -40,-4 -51,-14 -12,-9 -20,-23 -23,-41z"/>
  <path id="3" class="fil2" d="M3920 741l4 26c-8,2 -16,3 -22,3 -11,0 -19,-2 -25,-5 -6,-3 -10,-8 -12,-13 -2,-6 -4,-17 -4,-35l0 -100 -21 0 0 -22 21 0 0 -43 30 -18 0 61 29 0 0 22 -29 0 0 102c0,8 0,13 1,16 1,2 3,4 5,6 3,1 6,2 10,2 3,0 8,-1 13,-2z"/>
  <path id="4" class="fil2" d="M3957 768l0 -34 33 0 0 34c0,12 -2,22 -7,29 -4,8 -11,14 -20,18l-8 -13c6,-2 10,-6 13,-12 3,-5 5,-12 5,-22l-16 0z"/>
  <path id="5" class="fil2" d="M4247 768l0 -26c-13,20 -31,29 -55,29 -10,0 -19,-2 -28,-6 -9,-3 -15,-8 -20,-14 -4,-6 -7,-13 -9,-22 -1,-6 -1,-15 -1,-27l0 -107 29 0 0 95c0,16 0,26 2,31 1,8 5,14 11,18 6,5 14,7 22,7 9,0 17,-2 25,-7 8,-4 13,-10 16,-18 4,-8 5,-19 5,-34l0 -92 30 0 0 173 -27 0z"/>
  <path id="6" class="fil2" d="M4320 768l0 -173 26 0 0 24c13,-19 31,-28 55,-28 10,0 20,2 29,6 8,3 15,8 19,14 5,6 8,14 9,22 1,5 2,15 2,28l0 107 -29 0 0 -105c0,-12 -2,-21 -4,-27 -2,-6 -6,-11 -12,-14 -6,-4 -13,-6 -20,-6 -13,0 -23,4 -33,12 -9,8 -13,23 -13,45l0 95 -29 0z"/>
  <path id="7" class="fil2" d="M4494 681c0,-32 9,-55 27,-71 15,-13 33,-19 54,-19 24,0 43,8 58,23 15,16 23,37 23,65 0,22 -3,39 -10,52 -7,13 -16,23 -29,30 -13,7 -27,10 -42,10 -24,0 -44,-7 -59,-23 -15,-15 -22,-38 -22,-67zm30 0c0,22 5,39 14,50 10,11 22,16 37,16 15,0 27,-5 36,-16 10,-11 15,-28 15,-51 0,-21 -5,-37 -15,-48 -9,-11 -21,-17 -36,-17 -15,0 -27,6 -37,17 -9,11 -14,27 -14,49z"/>
  <path id="8" class="fil2" d="M4690 834l0 -239 27 0 0 22c6,-8 13,-15 21,-19 8,-5 18,-7 29,-7 15,0 28,4 39,11 11,8 20,19 26,32 5,14 8,29 8,46 0,17 -3,33 -9,48 -6,14 -16,24 -28,32 -12,8 -25,11 -38,11 -10,0 -18,-2 -26,-6 -8,-4 -14,-9 -19,-15l0 84 -30 0zm27 -152c0,22 5,39 13,49 9,11 20,16 33,16 13,0 24,-5 33,-16 10,-11 14,-28 14,-51 0,-22 -4,-39 -13,-50 -9,-11 -20,-16 -33,-16 -12,0 -23,6 -33,17 -9,12 -14,29 -14,51z"/>
  <path id="9" class="fil2" d="M4876 562l0 -33 29 0 0 33 -29 0zm0 206l0 -173 29 0 0 173 -29 0z"/>
  <path id="10" class="fil2" d="M4950 768l0 -173 26 0 0 24c13,-19 31,-28 55,-28 11,0 20,2 29,6 9,3 15,8 19,14 5,6 8,14 10,22 1,5 1,15 1,28l0 107 -29 0 0 -105c0,-12 -1,-21 -4,-27 -2,-6 -6,-11 -12,-14 -5,-4 -12,-6 -20,-6 -13,0 -23,4 -32,12 -9,8 -14,23 -14,45l0 95 -29 0z"/>
  <path id="11" class="fil2" d="M5135 562l0 -33 30 0 0 33 -30 0zm0 206l0 -173 30 0 0 173 -30 0z"/>
  <path id="12" class="fil2" d="M5198 681c0,-32 9,-55 27,-71 15,-13 33,-19 54,-19 24,0 44,8 59,23 15,16 22,37 22,65 0,22 -3,39 -10,52 -6,13 -16,23 -29,30 -13,7 -27,10 -42,10 -24,0 -43,-7 -58,-23 -15,-15 -23,-38 -23,-67zm30 0c0,22 5,39 15,50 9,11 22,16 36,16 15,0 27,-5 37,-16 9,-11 14,-28 14,-51 0,-21 -5,-37 -14,-48 -10,-11 -22,-17 -37,-17 -14,0 -27,6 -36,17 -10,11 -15,27 -15,49z"/>
  <path id="13" class="fil2" d="M5395 768l0 -173 26 0 0 24c13,-19 31,-28 55,-28 10,0 20,2 29,6 8,3 15,8 19,14 5,6 8,14 9,22 1,5 2,15 2,28l0 107 -29 0 0 -105c0,-12 -1,-21 -4,-27 -2,-6 -6,-11 -12,-14 -6,-4 -12,-6 -20,-6 -13,0 -23,4 -32,12 -10,8 -14,23 -14,45l0 95 -29 0z"/>
  <path id="14" class="fil2" d="M5693 746c-11,9 -21,16 -31,20 -10,3 -21,5 -33,5 -19,0 -33,-4 -44,-14 -10,-9 -15,-21 -15,-35 0,-8 2,-16 6,-23 4,-7 9,-13 15,-17 6,-4 13,-7 21,-10 6,-1 15,-3 26,-4 24,-3 41,-6 53,-10 0,-4 0,-7 0,-8 0,-12 -3,-20 -9,-25 -7,-6 -18,-10 -33,-10 -14,0 -24,3 -31,8 -6,4 -11,13 -14,25l-29 -4c3,-12 7,-22 13,-29 6,-8 15,-14 26,-18 11,-4 24,-6 39,-6 15,0 27,2 36,5 10,4 16,8 21,13 4,6 7,12 9,20 1,5 1,14 1,27l0 39c0,27 1,44 2,52 1,7 4,14 7,21l-30 0c-3,-7 -5,-14 -6,-22zm-2 -65c-11,4 -27,8 -48,11 -12,2 -21,4 -26,6 -5,2 -9,5 -12,9 -2,4 -4,9 -4,14 0,8 3,14 9,20 6,5 15,7 26,7 12,0 22,-2 30,-7 9,-5 16,-12 20,-20 3,-7 5,-17 5,-29l0 -11z"/>
  <path id="15" class="fil2" d="M5829 741l4 26c-8,2 -16,3 -22,3 -11,0 -19,-2 -25,-5 -6,-3 -10,-8 -12,-13 -2,-6 -4,-17 -4,-35l0 -100 -21 0 0 -22 21 0 0 -43 30 -18 0 61 29 0 0 22 -29 0 0 102c0,8 0,13 1,16 1,2 3,4 5,6 3,1 6,2 10,2 4,0 8,-1 13,-2z"/>
  <path id="16" class="fil2" d="M5976 712l30 4c-4,17 -13,31 -26,41 -13,9 -29,14 -49,14 -26,0 -46,-7 -60,-23 -15,-16 -23,-37 -23,-65 0,-29 8,-52 23,-68 15,-16 34,-24 58,-24 23,0 42,8 56,24 15,15 22,37 22,66 0,2 0,4 0,8l-129 0c1,19 7,33 16,43 10,10 22,15 37,15 10,0 19,-3 27,-8 8,-6 14,-15 18,-27zm-96 -47l96 0c-1,-15 -5,-26 -11,-33 -9,-11 -21,-17 -36,-17 -13,0 -25,4 -34,13 -9,9 -14,22 -15,37z"/>
  <path id="17" class="fil2" d="M6155 768l0 -22c-11,17 -27,25 -48,25 -14,0 -27,-3 -38,-11 -12,-8 -21,-18 -27,-32 -6,-13 -10,-29 -10,-47 0,-17 3,-33 9,-47 6,-14 14,-24 26,-32 11,-7 24,-11 38,-11 11,0 20,2 28,7 8,4 15,10 20,17l0 -86 29 0 0 239 -27 0zm-93 -87c0,22 5,39 14,50 10,11 21,16 34,16 12,0 23,-5 32,-15 9,-11 14,-27 14,-48 0,-24 -5,-41 -14,-52 -9,-11 -20,-17 -34,-17 -13,0 -24,6 -32,16 -9,11 -14,28 -14,50z"/>
  <path id="18" class="fil2" d="M6236 768l0 -34 34 0 0 34c0,12 -2,22 -7,29 -4,8 -11,14 -21,18l-8 -13c7,-2 11,-6 14,-12 3,-5 5,-12 5,-22l-17 0z"/>
  <path id="19" class="fil2" d="M3301 1140l0 -173 26 0 0 24c5,-8 13,-15 22,-20 9,-5 19,-8 30,-8 13,0 24,3 32,8 8,6 14,13 17,23 14,-21 32,-31 54,-31 17,0 30,5 39,15 10,9 14,24 14,43l0 119 -29 0 0 -109c0,-12 -1,-20 -3,-25 -2,-5 -5,-9 -10,-13 -5,-3 -11,-4 -18,-4 -12,0 -22,4 -30,12 -8,8 -12,21 -12,39l0 100 -30 0 0 -112c0,-13 -2,-23 -7,-30 -5,-6 -12,-9 -23,-9 -8,0 -16,2 -23,6 -7,5 -12,11 -15,19 -3,9 -5,21 -5,36l0 90 -29 0z"/>
  <path id="20" class="fil2" d="M3578 935l0 -34 30 0 0 34 -30 0zm0 205l0 -173 30 0 0 173 -30 0z"/>
  <path id="21" class="fil2" d="M3652 1140l0 -173 27 0 0 25c12,-19 31,-29 55,-29 10,0 20,2 28,6 9,4 16,9 20,15 4,6 7,13 9,21 1,6 2,15 2,29l0 106 -30 0 0 -105c0,-12 -1,-21 -3,-27 -2,-6 -6,-10 -12,-14 -6,-4 -13,-5 -20,-5 -13,0 -24,4 -33,12 -9,7 -13,23 -13,45l0 94 -30 0z"/>
  <path id="22" class="fil2" d="M3838 935l0 -34 29 0 0 34 -29 0zm0 205l0 -173 29 0 0 173 -29 0z"/>
  <path id="23" class="fil2" d="M3912 1140l0 -173 26 0 0 24c6,-8 13,-15 22,-20 9,-5 19,-8 31,-8 12,0 23,3 31,8 8,6 14,13 17,23 14,-21 32,-31 54,-31 17,0 30,5 40,15 9,9 14,24 14,43l0 119 -30 0 0 -109c0,-12 -1,-20 -3,-25 -2,-5 -5,-9 -10,-13 -5,-3 -11,-4 -18,-4 -12,0 -22,4 -30,12 -8,8 -12,21 -12,39l0 100 -29 0 0 -112c0,-13 -3,-23 -8,-30 -4,-6 -12,-9 -23,-9 -8,0 -16,2 -23,6 -7,5 -12,11 -15,19 -3,9 -5,21 -5,36l0 90 -29 0z"/>
  <path id="24" class="fil2" d="M4303 1118c-11,10 -22,16 -32,20 -10,4 -21,6 -32,6 -19,0 -34,-5 -44,-14 -10,-9 -15,-21 -15,-36 0,-8 1,-16 5,-23 4,-7 9,-12 15,-17 7,-4 14,-7 22,-9 5,-2 14,-3 26,-5 23,-2 41,-6 52,-10 0,-4 0,-6 0,-7 0,-12 -3,-21 -8,-25 -8,-7 -19,-10 -34,-10 -13,0 -24,2 -30,7 -7,5 -12,13 -15,26l-28 -4c2,-13 6,-23 12,-30 6,-8 15,-13 26,-18 12,-4 25,-6 40,-6 15,0 27,2 36,6 9,3 16,7 20,13 5,5 8,12 9,20 1,5 2,14 2,27l0 39c0,27 0,44 2,51 1,7 3,14 7,21l-31 0c-3,-6 -5,-13 -5,-22zm-3 -65c-10,5 -26,8 -48,11 -12,2 -20,4 -25,6 -5,2 -9,6 -12,10 -3,4 -4,8 -4,14 0,7 3,14 9,19 6,5 14,8 26,8 11,0 21,-3 30,-8 9,-5 15,-11 19,-20 3,-6 5,-16 5,-29l0 -11z"/>
  <polygon id="25" class="fil2" points="4374,1140 4374,901 4404,901 4404,1140 "/>
  <path id="26" class="fil2" d="M4449 935l0 -34 29 0 0 34 -29 0zm0 205l0 -173 29 0 0 173 -29 0z"/>
  <path id="27" class="fil2" d="M4511 1088l29 -4c2,11 7,20 14,26 7,7 18,10 31,10 14,0 24,-3 30,-9 7,-5 10,-11 10,-19 0,-6 -3,-12 -9,-15 -4,-3 -14,-6 -30,-10 -21,-6 -36,-10 -44,-14 -9,-4 -15,-10 -19,-17 -4,-7 -7,-14 -7,-23 0,-8 2,-15 6,-21 3,-7 8,-12 14,-17 5,-3 11,-6 19,-8 8,-2 16,-4 25,-4 13,0 25,2 36,6 10,4 17,9 22,16 5,7 9,16 10,27l-28 4c-2,-9 -5,-16 -12,-21 -6,-5 -15,-8 -26,-8 -13,0 -23,3 -29,7 -5,4 -8,10 -8,16 0,3 1,7 3,10 3,3 6,6 11,8 3,1 12,3 26,7 21,6 35,10 44,14 8,3 14,8 19,15 5,7 7,15 7,25 0,10 -3,19 -9,28 -5,8 -13,15 -24,20 -11,4 -23,7 -37,7 -22,0 -39,-5 -51,-14 -12,-10 -19,-23 -23,-42z"/>
  <path id="28" class="fil2" d="M4753 1114l4 26c-8,1 -15,2 -22,2 -10,0 -19,-1 -24,-5 -6,-3 -10,-7 -13,-13 -2,-5 -3,-17 -3,-35l0 -99 -22 0 0 -23 22 0 0 -43 29 -17 0 60 29 0 0 23 -29 0 0 101c0,8 1,14 2,16 1,3 2,4 5,6 2,1 5,2 10,2 3,0 7,0 12,-1z"/>
  <path id="29" class="fil2" d="M4906 1140l-52 -173 30 0 28 100 10 37c0,-2 3,-14 9,-36l27 -101 30 0 26 100 9 33 10 -33 30 -100 28 0 -54 173 -31 0 -27 -103 -7 -30 -35 133 -31 0z"/>
  <path id="30" class="fil2" d="M5234 1084l30 4c-5,18 -14,31 -26,41 -13,10 -30,15 -50,15 -25,0 -45,-8 -60,-24 -15,-15 -22,-37 -22,-65 0,-29 7,-52 22,-68 15,-16 35,-24 59,-24 23,0 41,8 56,24 15,16 22,38 22,66 0,2 0,5 0,8l-129 0c1,19 6,34 16,44 10,10 22,15 36,15 11,0 20,-3 28,-9 7,-5 13,-15 18,-27zm-96 -47l96 0c-1,-15 -5,-25 -11,-33 -9,-11 -21,-17 -36,-17 -14,0 -25,5 -34,14 -9,9 -14,21 -15,36z"/>
  <path id="31" class="fil2" d="M5328 1140l-27 0 0 -239 29 0 0 86c12,-16 28,-24 47,-24 11,0 21,2 31,7 9,4 17,10 23,18 6,8 11,17 14,28 4,11 6,22 6,35 0,29 -8,52 -22,68 -15,17 -32,25 -53,25 -20,0 -36,-9 -48,-26l0 22zm0 -88c0,21 3,36 8,45 9,15 22,23 38,23 12,0 23,-6 33,-17 9,-11 14,-28 14,-50 0,-22 -5,-39 -14,-50 -9,-10 -19,-16 -32,-16 -13,0 -24,6 -33,17 -10,11 -14,27 -14,48z"/>
  <path id="32" class="fil2" d="M5586 1140l0 -150 -26 0 0 -23 26 0 0 -18c0,-12 1,-21 3,-26 3,-8 8,-14 15,-19 7,-4 17,-7 30,-7 8,0 17,1 27,3l-4 26c-6,-1 -12,-2 -18,-2 -8,0 -15,2 -18,6 -4,4 -6,11 -6,21l0 16 34 0 0 23 -34 0 0 150 -29 0z"/>
  <path id="33" class="fil2" d="M5671 1140l0 -173 27 0 0 27c6,-13 13,-21 18,-25 6,-4 12,-6 19,-6 10,0 20,3 30,10l-10 27c-7,-4 -14,-6 -21,-6 -7,0 -13,2 -18,5 -5,4 -8,10 -10,16 -4,11 -5,22 -5,35l0 90 -30 0z"/>
  <path id="34" class="fil2" d="M5896 1118c-11,10 -22,16 -32,20 -10,4 -21,6 -32,6 -19,0 -34,-5 -44,-14 -10,-9 -15,-21 -15,-36 0,-8 2,-16 5,-23 4,-7 9,-12 16,-17 6,-4 13,-7 21,-9 5,-2 14,-3 26,-5 23,-2 41,-6 52,-10 0,-4 0,-6 0,-7 0,-12 -2,-21 -8,-25 -8,-7 -19,-10 -33,-10 -14,0 -25,2 -31,7 -7,5 -12,13 -15,26l-28 -4c2,-13 7,-23 13,-30 6,-8 14,-13 26,-18 11,-4 24,-6 39,-6 15,0 27,2 36,6 9,3 16,7 20,13 5,5 8,12 10,20 0,5 1,14 1,27l0 39c0,27 1,44 2,51 1,7 3,14 7,21l-31 0c-3,-6 -5,-13 -5,-22zm-3 -65c-10,5 -26,8 -48,11 -12,2 -20,4 -25,6 -5,2 -9,6 -12,10 -3,4 -4,8 -4,14 0,7 3,14 9,19 6,5 14,8 26,8 11,0 21,-3 30,-8 9,-5 15,-11 19,-20 4,-6 5,-16 5,-29l0 -11z"/>
  <path id="35" class="fil2" d="M5968 1140l0 -173 26 0 0 24c6,-8 13,-15 22,-20 9,-5 19,-8 31,-8 12,0 23,3 31,8 8,6 14,13 17,23 14,-21 32,-31 54,-31 17,0 31,5 40,15 9,9 14,24 14,43l0 119 -30 0 0 -109c0,-12 -1,-20 -3,-25 -1,-5 -5,-9 -10,-13 -5,-3 -11,-4 -18,-4 -12,0 -22,4 -30,12 -8,8 -12,21 -12,39l0 100 -29 0 0 -112c0,-13 -3,-23 -7,-30 -5,-6 -13,-9 -24,-9 -8,0 -16,2 -23,6 -7,5 -12,11 -15,19 -3,9 -5,21 -5,36l0 90 -29 0z"/>
  <path id="36" class="fil2" d="M6364 1084l30 4c-5,18 -14,31 -26,41 -13,10 -30,15 -50,15 -25,0 -45,-8 -60,-24 -15,-15 -22,-37 -22,-65 0,-29 7,-52 22,-68 15,-16 35,-24 59,-24 23,0 41,8 56,24 15,16 22,38 22,66 0,2 0,5 0,8l-129 0c1,19 6,34 16,44 10,10 22,15 36,15 11,0 20,-3 28,-9 7,-5 13,-15 18,-27zm-96 -47l96 0c-1,-15 -5,-25 -11,-33 -9,-11 -21,-17 -36,-17 -14,0 -25,5 -34,14 -9,9 -14,21 -15,36z"/>
  <path id="37" class="fil2" d="M6462 1140l-52 -173 31 0 27 100 10 37c0,-2 3,-14 9,-36l27 -101 30 0 26 100 9 33 10 -33 30 -100 28 0 -54 173 -30 0 -28 -103 -7 -30 -35 133 -31 0z"/>
  <path id="38" class="fil2" d="M6661 1054c0,-32 9,-56 27,-71 14,-13 33,-20 54,-20 24,0 43,8 58,24 15,15 23,37 23,64 0,22 -4,40 -10,52 -7,13 -17,23 -29,30 -13,7 -27,11 -42,11 -24,0 -44,-8 -59,-24 -15,-15 -22,-37 -22,-66zm30 0c0,22 5,38 14,49 10,11 22,17 37,17 14,0 27,-6 36,-17 10,-11 15,-28 15,-50 0,-22 -5,-38 -15,-49 -10,-11 -22,-16 -36,-16 -15,0 -27,5 -37,16 -9,11 -14,28 -14,50z"/>
  <path id="39" class="fil2" d="M6857 1140l0 -173 26 0 0 27c7,-13 13,-21 19,-25 6,-4 12,-6 19,-6 10,0 20,3 30,10l-11 27c-7,-4 -14,-6 -21,-6 -6,0 -12,2 -17,5 -5,4 -9,10 -11,16 -3,11 -5,22 -5,35l0 90 -29 0z"/>
  <polygon id="40" class="fil2" points="6968,1140 6968,901 6998,901 6998,1037 7067,967 7105,967 7039,1031 7112,1140 7075,1140 7018,1052 6998,1071 6998,1140 "/>
  <path id="41" class="fil2" d="M3308 1512l0 -150 -26 0 0 -23 26 0 0 -18c0,-12 1,-20 3,-26 3,-7 7,-13 15,-18 7,-5 17,-7 29,-7 9,0 18,1 28,3l-5 25c-6,-1 -11,-1 -17,-1 -9,0 -15,2 -19,5 -3,4 -5,11 -5,22l0 15 33 0 0 23 -33 0 0 150 -29 0z"/>
  <path id="42" class="fil2" d="M3382 1426c0,-32 9,-56 27,-71 15,-13 33,-19 54,-19 24,0 44,8 59,23 15,16 22,37 22,64 0,23 -3,40 -10,53 -6,13 -16,22 -29,30 -13,7 -27,10 -42,10 -24,0 -43,-8 -58,-23 -15,-16 -23,-38 -23,-67zm30 0c0,22 5,39 15,50 10,11 22,16 36,16 15,0 27,-5 37,-16 9,-12 14,-28 14,-51 0,-21 -5,-37 -14,-48 -10,-11 -22,-17 -37,-17 -14,0 -26,6 -36,16 -10,11 -15,28 -15,50z"/>
  <path id="43" class="fil2" d="M3578 1512l0 -173 27 0 0 27c6,-12 13,-20 18,-24 6,-4 12,-6 19,-6 10,0 20,3 30,9l-10 27c-7,-4 -14,-6 -21,-6 -7,0 -13,2 -18,6 -5,4 -8,9 -10,16 -4,10 -5,22 -5,34l0 90 -30 0z"/>
  <polygon id="44" class="fil4" points="3786,1512 3786,1274 3818,1274 3943,1461 3943,1274 3974,1274 3974,1512 3941,1512 3816,1325 3816,1512 "/>
  <path id="45" class="fil4" d="M4012 1426c0,-32 9,-56 27,-71 15,-13 33,-19 54,-19 24,0 43,8 58,23 15,16 23,37 23,64 0,23 -3,40 -10,53 -7,13 -16,22 -29,30 -13,7 -27,10 -42,10 -24,0 -44,-8 -59,-23 -15,-16 -22,-38 -22,-67zm30 0c0,22 5,39 15,50 9,11 21,16 36,16 15,0 27,-5 37,-16 9,-12 14,-28 14,-51 0,-21 -5,-37 -15,-48 -9,-11 -21,-17 -36,-17 -15,0 -27,6 -36,16 -10,11 -15,28 -15,50z"/>
  <path id="46" class="fil4" d="M4320 1512l0 -22c-11,18 -27,26 -48,26 -14,0 -27,-4 -38,-11 -12,-8 -21,-18 -27,-32 -6,-14 -10,-29 -10,-47 0,-17 3,-33 9,-47 6,-14 14,-25 26,-32 11,-8 24,-11 38,-11 11,0 20,2 28,6 8,5 15,11 20,18l0 -86 29 0 0 238 -27 0zm-93 -86c0,22 5,39 14,50 10,11 21,16 34,16 12,0 23,-5 32,-16 9,-10 14,-26 14,-47 0,-24 -5,-41 -14,-52 -9,-11 -20,-17 -34,-17 -13,0 -24,5 -32,16 -9,11 -14,27 -14,50z"/>
  <path id="47" class="fil4" d="M4512 1456l30 4c-5,18 -13,32 -26,41 -13,10 -30,15 -50,15 -25,0 -45,-8 -60,-23 -14,-16 -22,-38 -22,-66 0,-29 8,-51 23,-67 14,-16 34,-24 58,-24 23,0 42,8 56,23 15,16 22,38 22,67 0,1 0,4 0,7l-129 0c1,19 7,34 16,44 10,10 22,15 36,15 11,0 20,-3 28,-8 7,-6 13,-15 18,-28zm-96 -47l96 0c-1,-14 -5,-25 -11,-32 -9,-12 -21,-17 -36,-17 -14,0 -25,4 -34,13 -9,9 -14,21 -15,36z"/>
  <polygon id="48" class="fil4" points="4588,1512 4588,1479 4621,1479 4621,1512 "/>
  <path id="49" class="fil4" d="M4672 1308l0 -34 29 0 0 34 -29 0zm-37 271l5 -25c6,2 10,3 14,3 6,0 10,-2 13,-6 3,-4 5,-14 5,-30l0 -182 29 0 0 183c0,21 -3,36 -8,44 -7,11 -19,16 -36,16 -7,0 -15,-1 -22,-3z"/>
  <path id="50" class="fil4" d="M4734 1461l29 -5c2,12 6,21 14,27 7,6 18,9 31,9 14,0 24,-3 30,-8 7,-6 10,-12 10,-19 0,-7 -3,-12 -9,-16 -4,-3 -14,-6 -30,-10 -21,-5 -36,-10 -45,-14 -8,-4 -14,-9 -18,-16 -5,-7 -7,-15 -7,-24 0,-7 2,-14 5,-21 4,-6 9,-12 15,-16 4,-4 11,-6 18,-9 8,-2 17,-3 26,-3 13,0 25,2 35,6 11,4 18,9 23,16 5,6 8,15 10,26l-28 4c-2,-9 -6,-16 -12,-21 -6,-5 -15,-7 -26,-7 -14,0 -23,2 -29,6 -6,5 -8,10 -8,16 0,4 1,7 3,10 2,3 6,6 11,8 3,1 12,4 26,8 21,5 35,10 43,13 9,4 15,9 20,15 5,7 7,16 7,26 0,9 -3,18 -9,27 -5,9 -14,15 -24,20 -11,5 -23,7 -37,7 -22,0 -39,-5 -51,-14 -12,-9 -20,-23 -23,-41z"/>
 </g>
</svg>
