<?xml version="1.0" encoding="UTF-8"?>
<!DOCTYPE svg PUBLIC "-//W3C//DTD SVG 1.1//EN" "http://www.w3.org/Graphics/SVG/1.1/DTD/svg11.dtd">
<!-- Creator: CorelDRAW X7 -->
<svg xmlns="http://www.w3.org/2000/svg" xml:space="preserve" version="1.1" style="shape-rendering:geometricPrecision; text-rendering:geometricPrecision; image-rendering:optimizeQuality; fill-rule:evenodd; clip-rule:evenodd"
viewBox="0 0 8509 2687"
 xmlns:xlink="http://www.w3.org/1999/xlink">
 <defs>
  <style type="text/css">
   <![CDATA[
    .str0 {stroke:white;stroke-width:3.00317}
    .fil0 {fill:#34302D}
    .fil1 {fill:white}
    .fil2 {fill:white;fill-rule:nonzero}
   ]]>
  </style>
 </defs>
 <g id="Layer_x0020_1">
  <metadata id="CorelCorpID_0Corel-Layer"/>
  <polygon class="fil0" points="0,0 8509,0 8509,2687 0,2687 "/>
  <g id="_2375589295888">
   <polygon class="fil1 str0" points="2960,462 2953,462 2953,1015 2960,1015 "/>
   <polygon class="fil2" points="3311,826 3311,587 3343,587 3343,798 3460,798 3460,826 "/>
   <path id="1" class="fil2" d="M3612 770l31 4c-5,18 -14,32 -27,41 -13,10 -29,15 -49,15 -26,0 -46,-8 -60,-23 -15,-16 -23,-38 -23,-66 0,-29 8,-52 23,-68 15,-16 34,-24 58,-24 23,0 42,8 57,24 14,16 22,38 22,66 0,2 0,5 -1,8l-129 0c2,19 7,34 17,44 9,10 21,15 36,15 10,0 20,-3 27,-9 8,-5 14,-14 18,-27zm-96 -47l97 0c-2,-14 -5,-25 -12,-33 -9,-11 -21,-17 -36,-17 -13,0 -25,5 -34,14 -9,9 -14,21 -15,36z"/>
   <path id="2" class="fil2" d="M3743 800l4 26c-8,2 -15,3 -22,3 -10,0 -19,-2 -24,-6 -6,-3 -10,-7 -13,-13 -2,-5 -3,-17 -3,-35l0 -99 -22 0 0 -23 22 0 0 -43 29 -17 0 60 29 0 0 23 -29 0 0 101c0,9 1,14 2,16 1,3 2,5 5,6 2,1 5,2 10,2 3,0 7,0 12,-1z"/>
   <path id="3" class="fil2" d="M3771 619l0 -34 31 0 0 27c0,14 -1,25 -5,31 -4,9 -12,16 -22,20l-7 -12c6,-2 11,-6 14,-11 2,-5 4,-12 4,-21l-15 0z"/>
   <path id="4" class="fil2" d="M3829 774l29 -4c1,11 6,20 13,27 8,6 18,9 32,9 13,0 23,-3 30,-8 6,-6 10,-12 10,-20 0,-6 -3,-12 -9,-15 -4,-3 -14,-6 -30,-10 -22,-6 -37,-10 -45,-14 -8,-4 -14,-10 -19,-17 -4,-7 -6,-14 -6,-23 0,-8 2,-15 5,-21 4,-7 8,-12 15,-17 4,-3 10,-6 18,-8 8,-2 16,-4 25,-4 14,0 26,2 36,6 10,4 18,9 23,16 5,7 8,16 10,27l-29 4c-1,-9 -5,-16 -11,-21 -6,-5 -15,-8 -26,-8 -14,0 -23,3 -29,7 -6,5 -9,10 -9,16 0,3 1,7 4,10 2,3 6,6 11,8 3,1 12,3 26,7 21,6 35,10 43,14 8,3 15,9 20,15 4,7 7,15 7,25 0,10 -3,19 -9,28 -6,8 -14,15 -25,20 -10,5 -23,7 -36,7 -23,0 -40,-5 -52,-14 -11,-9 -19,-23 -22,-42z"/>
   <path id="5" class="fil2" d="M4127 826l-27 0 0 -239 29 0 0 86c12,-16 28,-24 48,-24 10,0 20,2 30,7 9,4 17,10 23,18 6,8 11,17 15,28 3,11 5,23 5,35 0,30 -7,53 -22,69 -15,16 -32,24 -53,24 -20,0 -36,-9 -48,-26l0 22zm0 -88c0,21 3,36 8,45 9,15 22,23 38,23 12,0 24,-6 33,-17 9,-11 14,-28 14,-50 0,-22 -5,-39 -14,-49 -9,-11 -19,-17 -32,-17 -13,0 -24,6 -33,17 -10,11 -14,27 -14,48z"/>
   <path id="6" class="fil2" d="M4399 826l0 -26c-14,20 -32,30 -55,30 -10,0 -20,-2 -29,-6 -8,-4 -15,-9 -19,-15 -5,-6 -8,-13 -9,-21 -1,-6 -2,-15 -2,-28l0 -107 29 0 0 96c0,15 1,25 2,31 2,8 6,14 12,18 6,4 13,7 22,7 9,0 17,-3 25,-7 7,-5 13,-11 16,-19 3,-7 5,-19 5,-33l0 -93 29 0 0 173 -26 0z"/>
   <path id="7" class="fil2" d="M4471 621l0 -34 30 0 0 34 -30 0zm0 205l0 -173 30 0 0 173 -30 0z"/>
   <polygon id="8" class="fil2" points="4545,826 4545,587 4574,587 4574,826 "/>
   <path id="9" class="fil2" d="M4731 826l0 -22c-11,17 -27,26 -48,26 -14,0 -27,-4 -38,-12 -12,-7 -21,-18 -27,-31 -6,-14 -10,-30 -10,-47 0,-17 3,-33 9,-47 6,-14 15,-25 26,-32 11,-8 24,-12 39,-12 10,0 19,3 27,7 9,4 15,10 20,17l0 -86 30 0 0 239 -28 0zm-92 -86c0,22 4,38 14,49 9,11 20,17 33,17 13,0 23,-5 32,-16 9,-10 14,-26 14,-48 0,-23 -5,-41 -14,-52 -9,-11 -20,-16 -34,-16 -13,0 -24,5 -32,16 -9,10 -13,27 -13,50z"/>
   <path id="10" class="fil2" d="M5011 805c-11,9 -22,15 -32,19 -10,4 -20,6 -32,6 -19,0 -34,-5 -44,-14 -10,-9 -15,-21 -15,-36 0,-8 2,-16 6,-23 3,-7 9,-12 15,-16 6,-5 13,-8 21,-10 6,-2 14,-3 26,-5 24,-2 41,-6 52,-10 1,-4 1,-6 1,-7 0,-12 -3,-20 -9,-25 -7,-7 -18,-10 -33,-10 -14,0 -24,2 -31,7 -7,5 -11,13 -15,26l-28 -4c2,-13 7,-23 13,-30 6,-8 14,-13 26,-18 11,-4 24,-6 39,-6 15,0 27,2 36,6 9,3 16,7 21,13 4,5 7,12 9,20 1,5 1,14 1,27l0 39c0,27 1,44 2,51 1,8 4,15 7,21l-30 0c-3,-6 -5,-13 -6,-21zm-2 -66c-11,5 -27,8 -48,11 -13,2 -21,4 -26,6 -5,2 -9,6 -12,10 -2,4 -4,9 -4,14 0,7 3,14 9,19 6,5 15,8 26,8 11,0 21,-3 30,-8 9,-4 16,-11 20,-20 3,-6 4,-16 4,-29l1 -11z"/>
   <path id="11" class="fil2" d="M5203 826l-27 0 0 -239 29 0 0 86c13,-16 28,-24 48,-24 10,0 20,2 30,7 9,4 17,10 23,18 6,8 11,17 15,28 3,11 5,23 5,35 0,30 -7,53 -22,69 -15,16 -32,24 -53,24 -20,0 -36,-9 -48,-26l0 22zm0 -88c0,21 3,36 8,45 9,15 22,23 38,23 12,0 24,-6 33,-17 9,-11 14,-28 14,-50 0,-22 -5,-39 -14,-49 -8,-11 -19,-17 -32,-17 -13,0 -24,6 -33,17 -10,11 -14,27 -14,48z"/>
   <path id="12" class="fil2" d="M5480 770l30 4c-5,18 -13,32 -26,41 -13,10 -30,15 -50,15 -25,0 -45,-8 -60,-23 -15,-16 -22,-38 -22,-66 0,-29 7,-52 22,-68 15,-16 35,-24 59,-24 23,0 42,8 56,24 15,16 22,38 22,66 0,2 0,5 0,8l-129 0c1,19 6,34 16,44 10,10 22,15 36,15 11,0 20,-3 28,-9 7,-5 13,-14 18,-27zm-96 -47l96 0c-1,-14 -5,-25 -11,-33 -9,-11 -21,-17 -36,-17 -14,0 -25,5 -34,14 -9,9 -14,21 -15,36z"/>
   <path id="13" class="fil2" d="M5611 800l4 26c-8,2 -16,3 -22,3 -11,0 -19,-2 -25,-6 -6,-3 -10,-7 -12,-13 -3,-5 -4,-17 -4,-35l0 -99 -21 0 0 -23 21 0 0 -43 30 -17 0 60 29 0 0 23 -29 0 0 101c0,9 0,14 1,16 1,3 3,5 5,6 3,1 6,2 10,2 3,0 8,0 13,-1z"/>
   <path id="14" class="fil2" d="M5704 800l4 26c-9,2 -16,3 -22,3 -11,0 -19,-2 -25,-6 -6,-3 -10,-7 -12,-13 -3,-5 -4,-17 -4,-35l0 -99 -22 0 0 -23 22 0 0 -43 29 -17 0 60 30 0 0 23 -30 0 0 101c0,9 1,14 2,16 1,3 3,5 5,6 2,1 6,2 10,2 3,0 7,0 13,-1z"/>
   <path id="15" class="fil2" d="M5851 770l30 4c-5,18 -13,32 -26,41 -13,10 -30,15 -50,15 -25,0 -45,-8 -60,-23 -15,-16 -22,-38 -22,-66 0,-29 7,-52 22,-68 15,-16 35,-24 59,-24 23,0 42,8 56,24 15,16 22,38 22,66 0,2 0,5 0,8l-129 0c1,19 6,34 16,44 10,10 22,15 36,15 11,0 20,-3 28,-9 7,-5 13,-14 18,-27zm-96 -47l96 0c-1,-14 -5,-25 -11,-33 -9,-11 -21,-17 -36,-17 -14,0 -25,5 -34,14 -9,9 -14,21 -15,36z"/>
   <path id="16" class="fil2" d="M5918 826l0 -173 26 0 0 27c7,-13 13,-21 19,-25 6,-4 12,-6 19,-6 10,0 20,3 30,10l-10 27c-8,-4 -15,-6 -22,-6 -6,0 -12,2 -17,6 -5,3 -9,9 -11,16 -3,10 -5,21 -5,34l0 90 -29 0z"/>
   <polygon id="17" class="fil2" points="6126,826 6126,587 6299,587 6299,615 6158,615 6158,689 6290,689 6290,717 6158,717 6158,798 6305,798 6305,826 "/>
   <path id="18" class="fil2" d="M6345 826l0 -173 26 0 0 25c13,-19 31,-29 55,-29 10,0 20,2 29,6 8,4 15,9 19,15 5,6 8,13 9,21 2,6 2,15 2,29l0 106 -29 0 0 -105c0,-12 -1,-21 -4,-27 -2,-6 -6,-10 -12,-14 -6,-4 -12,-5 -20,-5 -13,0 -23,4 -32,12 -10,8 -14,23 -14,45l0 94 -29 0z"/>
   <path id="19" class="fil2" d="M6594 800l4 26c-8,2 -16,3 -22,3 -11,0 -19,-2 -25,-6 -6,-3 -10,-7 -12,-13 -3,-5 -4,-17 -4,-35l0 -99 -21 0 0 -23 21 0 0 -43 30 -17 0 60 29 0 0 23 -29 0 0 101c0,9 0,14 1,16 1,3 3,5 5,6 2,1 6,2 10,2 3,0 8,0 13,-1z"/>
   <path id="20" class="fil2" d="M6741 770l30 4c-4,18 -13,32 -26,41 -13,10 -29,15 -50,15 -25,0 -45,-8 -60,-23 -14,-16 -22,-38 -22,-66 0,-29 8,-52 23,-68 15,-16 34,-24 58,-24 23,0 42,8 56,24 15,16 22,38 22,66 0,2 0,5 0,8l-129 0c1,19 7,34 16,44 10,10 22,15 36,15 11,0 20,-3 28,-9 8,-5 14,-14 18,-27zm-96 -47l96 0c-1,-14 -5,-25 -11,-33 -9,-11 -21,-17 -36,-17 -13,0 -25,5 -34,14 -9,9 -14,21 -15,36z"/>
   <path id="21" class="fil2" d="M6808 826l0 -173 27 0 0 27c6,-13 12,-21 18,-25 6,-4 12,-6 19,-6 10,0 20,3 30,10l-10 27c-7,-4 -14,-6 -22,-6 -6,0 -12,2 -17,6 -5,3 -8,9 -11,16 -3,10 -4,21 -4,34l0 90 -30 0z"/>
   <path id="22" class="fil2" d="M6920 893l0 -240 26 0 0 23c7,-9 14,-16 22,-20 8,-4 17,-7 28,-7 15,0 28,4 40,12 11,7 19,18 25,32 6,14 9,29 9,45 0,18 -3,34 -10,48 -6,14 -15,25 -27,33 -13,7 -25,11 -39,11 -9,0 -18,-2 -26,-6 -8,-4 -14,-10 -19,-16l0 85 -29 0zm26 -152c0,22 5,38 14,49 9,11 20,16 32,16 13,0 25,-6 34,-17 9,-11 14,-28 14,-51 0,-22 -5,-38 -14,-49 -9,-11 -20,-17 -32,-17 -13,0 -24,6 -33,18 -10,12 -15,28 -15,51z"/>
   <path id="23" class="fil2" d="M7105 826l0 -173 26 0 0 27c7,-13 13,-21 19,-25 6,-4 12,-6 19,-6 10,0 20,3 30,10l-10 27c-8,-4 -15,-6 -22,-6 -6,0 -12,2 -17,6 -5,3 -9,9 -11,16 -3,10 -5,21 -5,34l0 90 -29 0z"/>
   <path id="24" class="fil2" d="M7216 621l0 -34 30 0 0 34 -30 0zm0 205l0 -173 30 0 0 173 -30 0z"/>
   <path id="25" class="fil2" d="M7279 774l29 -4c1,11 6,20 13,27 8,6 18,9 32,9 13,0 23,-3 30,-8 6,-6 10,-12 10,-20 0,-6 -3,-12 -9,-15 -4,-3 -14,-6 -30,-10 -22,-6 -37,-10 -45,-14 -8,-4 -14,-10 -19,-17 -4,-7 -6,-14 -6,-23 0,-8 2,-15 5,-21 4,-7 8,-12 14,-17 5,-3 11,-6 19,-8 8,-2 16,-4 25,-4 14,0 26,2 36,6 10,4 18,9 23,16 5,7 8,16 10,27l-29 4c-1,-9 -5,-16 -11,-21 -6,-5 -15,-8 -26,-8 -14,0 -24,3 -29,7 -6,5 -9,10 -9,16 0,3 1,7 4,10 2,3 6,6 11,8 3,1 11,3 26,7 20,6 35,10 43,14 8,3 15,9 20,15 4,7 7,15 7,25 0,10 -3,19 -9,28 -6,8 -14,15 -25,20 -10,5 -23,7 -36,7 -23,0 -40,-5 -52,-14 -11,-9 -19,-23 -22,-42z"/>
   <path id="26" class="fil2" d="M7575 770l31 4c-5,18 -14,32 -27,41 -13,10 -29,15 -49,15 -25,0 -45,-8 -60,-23 -15,-16 -22,-38 -22,-66 0,-29 7,-52 22,-68 15,-16 34,-24 58,-24 23,0 42,8 57,24 14,16 22,38 22,66 0,2 0,5 0,8l-129 0c1,19 6,34 16,44 9,10 21,15 36,15 11,0 20,-3 27,-9 8,-5 14,-14 18,-27zm-96 -47l97 0c-2,-14 -5,-25 -11,-33 -10,-11 -22,-17 -37,-17 -13,0 -24,5 -34,14 -9,9 -14,21 -15,36z"/>
   <polygon id="27" class="fil2" points="7651,826 7651,793 7685,793 7685,826 "/>
   <path class="fil2" d="M824 788l44 -7c2,17 9,31 20,40 12,9 27,14 47,14 21,0 36,-4 45,-12 10,-9 15,-18 15,-29 0,-10 -4,-18 -13,-24 -6,-4 -21,-9 -45,-15 -32,-8 -55,-15 -67,-21 -13,-6 -22,-14 -28,-25 -7,-10 -10,-22 -10,-34 0,-12 3,-22 8,-32 5,-10 12,-18 21,-25 7,-5 17,-9 28,-13 12,-3 25,-5 38,-5 21,0 39,3 54,9 15,6 27,14 34,24 7,10 12,23 15,40l-43 6c-2,-13 -8,-24 -17,-31 -9,-8 -22,-12 -39,-12 -21,0 -35,4 -44,10 -8,7 -13,15 -13,24 0,5 2,10 6,15 3,5 9,9 17,12 4,1 17,5 38,11 31,8 53,15 66,20 12,6 22,13 29,23 7,10 10,23 10,38 0,15 -4,28 -13,41 -8,13 -21,23 -37,30 -16,7 -34,11 -55,11 -33,0 -59,-7 -77,-21 -17,-14 -29,-35 -34,-62z"/>
   <path id="1" class="fil2" d="M1092 965l0 -359 40 0 0 34c10,-13 20,-23 32,-30 12,-7 27,-10 43,-10 23,0 42,6 59,17 17,12 30,28 38,48 9,21 13,44 13,69 0,26 -4,50 -14,71 -9,21 -23,38 -41,49 -18,11 -38,17 -58,17 -14,0 -27,-3 -39,-9 -12,-7 -21,-14 -29,-24l0 127 -44 0zm40 -228c0,33 7,58 20,74 14,16 30,24 49,24 20,0 37,-8 51,-25 13,-16 20,-42 20,-77 0,-33 -6,-57 -20,-74 -14,-16 -30,-24 -49,-24 -18,0 -35,8 -49,26 -15,17 -22,43 -22,76z"/>
   <path id="2" class="fil2" d="M1370 865l0 -259 40 0 0 39c10,-18 19,-30 28,-36 8,-6 18,-9 28,-9 15,0 30,5 45,14l-15 41c-11,-6 -22,-9 -33,-9 -9,0 -18,3 -25,8 -8,6 -13,14 -17,24 -4,16 -7,33 -7,52l0 135 -44 0z"/>
   <path id="3" class="fil2" d="M1537 557l0 -50 44 0 0 50 -44 0zm0 308l0 -259 44 0 0 259 -44 0z"/>
   <path id="4" class="fil2" d="M1648 865l0 -259 40 0 0 37c19,-29 47,-43 82,-43 16,0 31,3 44,9 13,5 23,13 29,22 7,9 11,20 14,32 1,8 2,23 2,43l0 159 -44 0 0 -157c0,-18 -2,-32 -5,-41 -3,-8 -9,-16 -18,-21 -9,-5 -19,-8 -31,-8 -18,0 -35,6 -48,18 -14,12 -21,34 -21,68l0 141 -44 0z"/>
   <path id="5" class="fil2" d="M1919 887l42 6c2,13 7,23 15,29 11,8 26,12 45,12 20,0 36,-4 47,-12 11,-8 19,-20 23,-34 2,-9 3,-28 3,-57 -19,23 -43,34 -72,34 -36,0 -63,-12 -83,-38 -20,-26 -29,-57 -29,-93 0,-25 4,-47 13,-68 9,-21 22,-37 39,-49 17,-11 37,-17 60,-17 31,0 56,13 76,38l0 -32 40 0 0 224c0,40 -4,69 -12,86 -8,17 -21,30 -39,40 -18,10 -40,15 -66,15 -31,0 -56,-7 -75,-21 -19,-14 -28,-35 -27,-63zm36 -156c0,34 7,59 20,74 14,16 31,24 51,24 20,0 37,-8 51,-23 14,-16 20,-40 20,-73 0,-32 -7,-56 -21,-72 -14,-16 -31,-24 -51,-24 -19,0 -36,8 -50,23 -13,16 -20,40 -20,71z"/>
   <polygon id="6" class="fil2" points="2218,865 2218,815 2268,815 2268,865 "/>
   <path id="7" class="fil2" d="M2344 557l0 -50 44 0 0 50 -44 0zm0 308l0 -259 44 0 0 259 -44 0z"/>
   <path id="8" class="fil2" d="M2439 736c0,-48 13,-84 40,-107 22,-19 50,-29 82,-29 35,0 65,12 87,35 23,23 34,56 34,97 0,33 -5,59 -15,79 -10,19 -24,33 -44,44 -19,11 -40,16 -62,16 -37,0 -66,-12 -88,-35 -23,-23 -34,-57 -34,-100zm45 0c0,33 7,58 22,74 14,17 33,25 55,25 22,0 40,-8 54,-25 15,-17 22,-42 22,-76 0,-32 -7,-56 -22,-73 -14,-16 -33,-24 -54,-24 -22,0 -41,8 -55,24 -15,17 -22,41 -22,75z"/>
  </g>
 </g>
</svg>
