<svg xmlns="http://www.w3.org/2000/svg" xml:space="preserve" style="shape-rendering:geometricPrecision; text-rendering:geometricPrecision; image-rendering:optimizeQuality; fill-rule:evenodd; clip-rule:evenodd"
viewBox="0 0 8500 2684"
 xmlns:xlink="http://www.w3.org/1999/xlink">
 <defs>
  <style type="text/css">
   <![CDATA[
    .str0 {stroke:white;stroke-width:3}
    .fil3 {fill:none;fill-rule:nonzero}
    .fil0 {fill:#68217A}
    .fil1 {fill:white}
    .fil2 {fill:white;fill-rule:nonzero}
   ]]>
  </style>
 </defs>
 <g id="Layer_x0020_1">
  <metadata id="CorelCorpID_0Corel-Layer"/>
  <polygon class="fil0" points="0,0 8500,0 8500,2684 0,2684 0,0 "/>
  <g id="_2375589715168">
   <path class="fil1" d="M813 733l109 -85 0 169 -109 -84zm-158 61l0 -123 62 62 -62 61zm267 -267l-163 163 -104 -80 -41 20 0 205 41 21 104 -81 163 163 103 -41 0 -329 -103 -41z"/>
   <rect class="fil1" x="3497" y="457" width="7.45669" height="551.756"/>
   <path class="fil2" d="M3682 819l91 -239 35 0 97 239 -36 0 -27 -72 -101 0 -26 72 -33 0zm68 -98l82 0 -25 -66c-8,-20 -13,-37 -17,-50 -4,16 -8,31 -14,46l-26 70z"/>
   <path id="1" class="fil2" d="M3926 819l0 -173 27 0 0 25c12,-19 31,-29 55,-29 10,0 20,2 28,6 9,4 16,9 20,15 4,6 7,13 9,21 1,6 2,15 2,29l0 106 -30 0 0 -105c0,-12 -1,-21 -3,-27 -2,-6 -6,-10 -12,-14 -6,-3 -13,-5 -20,-5 -13,0 -24,4 -33,12 -9,8 -13,23 -13,45l0 94 -30 0z"/>
   <path id="2" class="fil2" d="M4111 886l-4 -27c7,1 12,2 17,2 7,0 12,-1 16,-3 4,-2 7,-5 9,-9 2,-3 5,-10 9,-22 1,-2 2,-4 3,-7l-66 -174 32 0 36 100c4,13 9,26 12,40 4,-13 8,-26 12,-39l37 -101 29 0 -65 176c-7,19 -12,32 -16,39 -6,10 -12,17 -18,21 -7,5 -15,7 -25,7 -5,0 -12,-1 -18,-3z"/>
   <polygon id="3" class="fil2" points="4373,819 4373,580 4405,580 4405,791 4522,791 4522,819 "/>
   <path id="4" class="fil2" d="M4670 797c-11,10 -22,16 -32,20 -10,4 -21,6 -32,6 -19,0 -34,-5 -44,-14 -10,-9 -15,-21 -15,-36 0,-8 1,-16 5,-23 4,-7 9,-12 15,-16 7,-5 14,-8 22,-10 5,-2 14,-3 26,-4 23,-3 41,-7 52,-11 0,-4 0,-6 0,-7 0,-12 -3,-20 -8,-25 -8,-7 -19,-10 -34,-10 -13,0 -24,2 -30,7 -7,5 -12,13 -15,26l-28 -4c2,-12 6,-22 12,-30 6,-8 15,-13 26,-17 12,-4 25,-7 40,-7 15,0 27,2 36,6 9,3 16,8 20,13 5,5 8,12 9,20 1,5 2,14 2,27l0 39c0,27 0,44 2,51 1,8 3,14 7,21l-31 0c-3,-6 -5,-13 -5,-22zm-3 -65c-10,5 -26,8 -48,11 -12,2 -20,4 -25,6 -5,2 -9,6 -12,10 -3,4 -4,9 -4,14 0,7 3,14 9,19 6,5 14,8 26,8 11,0 21,-3 30,-8 9,-4 15,-11 19,-20 3,-6 5,-16 5,-29l0 -11z"/>
   <path id="5" class="fil2" d="M4742 819l0 -173 26 0 0 25c13,-19 31,-29 55,-29 11,0 20,2 29,6 9,4 15,9 20,15 4,6 7,13 9,21 1,6 1,15 1,29l0 106 -29 0 0 -105c0,-12 -1,-21 -3,-27 -3,-6 -7,-10 -13,-14 -5,-3 -12,-5 -20,-5 -12,0 -23,4 -32,12 -9,8 -14,23 -14,45l0 94 -29 0z"/>
   <path id="6" class="fil2" d="M4922 833l28 4c1,9 5,16 10,20 7,5 17,8 30,8 14,0 24,-3 31,-8 8,-6 13,-13 15,-23 2,-6 3,-18 3,-38 -13,16 -29,23 -48,23 -24,0 -43,-8 -56,-26 -13,-17 -19,-37 -19,-61 0,-17 3,-32 9,-46 6,-14 14,-25 26,-32 11,-8 24,-12 40,-12 20,0 37,9 50,25l0 -21 27 0 0 150c0,26 -2,46 -8,57 -5,11 -14,20 -26,26 -12,7 -26,10 -44,10 -20,0 -37,-4 -50,-14 -12,-9 -19,-23 -18,-42zm24 -103c0,22 4,39 13,49 9,11 21,16 34,16 14,0 25,-5 34,-16 9,-10 14,-26 14,-48 0,-21 -5,-37 -14,-48 -10,-11 -21,-16 -34,-16 -13,0 -24,5 -33,16 -10,10 -14,26 -14,47z"/>
   <path id="7" class="fil2" d="M5226 819l0 -26c-14,20 -32,30 -55,30 -10,0 -20,-2 -29,-6 -8,-4 -15,-9 -19,-15 -4,-6 -7,-13 -9,-21 -1,-6 -2,-15 -2,-28l0 -107 29 0 0 96c0,15 1,25 2,31 2,7 6,13 12,18 6,4 13,6 22,6 9,0 17,-2 25,-6 7,-5 13,-11 16,-19 3,-7 5,-19 5,-33l0 -93 29 0 0 173 -26 0z"/>
   <path id="8" class="fil2" d="M5411 797c-11,10 -21,16 -31,20 -10,4 -21,6 -33,6 -19,0 -33,-5 -44,-14 -10,-9 -15,-21 -15,-36 0,-8 2,-16 6,-23 4,-7 9,-12 15,-16 6,-5 13,-8 21,-10 6,-2 15,-3 26,-4 24,-3 41,-7 53,-11 0,-4 0,-6 0,-7 0,-12 -3,-20 -9,-25 -7,-7 -18,-10 -33,-10 -14,0 -24,2 -31,7 -6,5 -11,13 -14,26l-29 -4c3,-12 7,-22 13,-30 6,-8 15,-13 26,-17 11,-4 24,-7 39,-7 15,0 27,2 36,6 10,3 16,8 21,13 4,5 7,12 9,20 1,5 1,14 1,27l0 39c0,27 1,44 2,51 1,8 4,14 7,21l-30 0c-3,-6 -5,-13 -6,-22zm-2 -65c-11,5 -27,8 -48,11 -12,2 -21,4 -26,6 -5,2 -9,6 -11,10 -3,4 -5,9 -5,14 0,7 3,14 9,19 6,5 15,8 26,8 12,0 22,-3 30,-8 9,-4 16,-11 20,-20 3,-6 5,-16 5,-29l0 -11z"/>
   <path id="9" class="fil2" d="M5478 833l28 4c2,9 5,16 10,20 8,5 18,8 30,8 14,0 24,-3 32,-8 7,-6 12,-13 15,-23 1,-6 2,-18 2,-38 -13,16 -29,23 -48,23 -24,0 -42,-8 -55,-26 -13,-17 -20,-37 -20,-61 0,-17 3,-32 9,-46 6,-14 15,-25 26,-32 11,-8 25,-12 40,-12 20,0 37,9 50,25l0 -21 27 0 0 150c0,26 -2,46 -8,57 -5,11 -14,20 -26,26 -12,7 -26,10 -44,10 -20,0 -37,-4 -50,-14 -12,-9 -18,-23 -18,-42zm24 -103c0,22 5,39 14,49 9,11 20,16 33,16 14,0 25,-5 34,-16 10,-10 14,-26 14,-48 0,-21 -5,-37 -14,-48 -9,-11 -21,-16 -34,-16 -13,0 -24,5 -33,16 -9,10 -14,26 -14,47z"/>
   <path id="10" class="fil2" d="M5787 763l30 4c-5,18 -13,31 -26,41 -13,10 -30,15 -50,15 -25,0 -45,-8 -60,-24 -14,-15 -22,-37 -22,-65 0,-29 8,-51 23,-67 15,-17 34,-25 58,-25 23,0 42,8 56,24 15,16 22,38 22,66 0,2 0,5 0,8l-129 0c1,19 7,34 16,44 10,10 22,15 36,15 11,0 20,-3 28,-9 7,-5 13,-14 18,-27zm-96 -47l96 0c-1,-14 -5,-25 -11,-33 -9,-11 -21,-17 -36,-17 -14,0 -25,5 -34,14 -9,9 -14,21 -15,36z"/>
   <path id="11" class="fil2" d="M5862 819l0 -33 33 0 0 33c0,12 -2,22 -6,30 -5,7 -12,13 -21,17l-8 -12c6,-3 11,-7 14,-12 3,-5 4,-13 5,-23l-17 0z"/>
   <path id="12" class="fil2" d="M5999 819l91 -239 35 0 97 239 -36 0 -28 -72 -100 0 -26 72 -33 0zm68 -98l82 0 -25 -66c-8,-20 -13,-37 -17,-50 -4,16 -8,31 -14,46l-26 70z"/>
   <path id="13" class="fil2" d="M6243 819l0 -173 27 0 0 25c12,-19 31,-29 55,-29 10,0 20,2 28,6 9,4 16,9 20,15 4,6 7,13 9,21 1,6 2,15 2,29l0 106 -30 0 0 -105c0,-12 -1,-21 -3,-27 -2,-6 -6,-10 -12,-14 -6,-3 -13,-5 -20,-5 -13,0 -24,4 -33,12 -9,8 -13,23 -13,45l0 94 -30 0z"/>
   <path id="14" class="fil2" d="M6427 886l-3 -27c7,1 12,2 17,2 6,0 12,-1 16,-3 4,-2 7,-5 9,-9 2,-3 5,-10 9,-22 1,-2 2,-4 3,-7l-66 -174 31 0 37 100c4,13 8,26 12,40 4,-13 8,-26 12,-39l37 -101 29 0 -65 176c-7,19 -13,32 -16,39 -6,10 -12,17 -18,21 -7,5 -15,7 -25,7 -5,0 -12,-1 -19,-3z"/>
   <path id="15" class="fil2" d="M6692 819l0 -239 90 0c16,0 28,1 36,3 12,2 22,5 30,11 8,5 14,13 19,23 5,10 7,21 7,32 0,21 -6,38 -19,52 -13,14 -37,21 -70,21l-62 0 0 97 -31 0zm31 -125l62 0c21,0 35,-4 44,-12 8,-7 12,-18 12,-32 0,-10 -2,-18 -7,-25 -5,-7 -12,-12 -20,-14 -5,-2 -15,-3 -30,-3l-61 0 0 86z"/>
   <polygon id="16" class="fil2" points="6910,819 6910,580 6939,580 6939,819 "/>
   <path id="17" class="fil2" d="M7097 797c-10,10 -21,16 -31,20 -10,4 -21,6 -32,6 -19,0 -34,-5 -44,-14 -10,-9 -16,-21 -16,-36 0,-8 2,-16 6,-23 4,-7 9,-12 15,-16 7,-5 14,-8 22,-10 5,-2 14,-3 26,-4 23,-3 41,-7 52,-11 0,-4 0,-6 0,-7 0,-12 -3,-20 -8,-25 -8,-7 -19,-10 -34,-10 -13,0 -24,2 -30,7 -7,5 -12,13 -15,26l-29 -4c3,-12 7,-22 13,-30 6,-8 15,-13 26,-17 12,-4 25,-7 40,-7 14,0 27,2 36,6 9,3 16,8 20,13 5,5 8,12 9,20 1,5 2,14 2,27l0 39c0,27 0,44 2,51 1,8 3,14 7,21l-31 0c-3,-6 -5,-13 -6,-22zm-2 -65c-11,5 -27,8 -48,11 -12,2 -21,4 -26,6 -5,2 -8,6 -11,10 -3,4 -4,9 -4,14 0,7 3,14 9,19 6,5 14,8 26,8 11,0 21,-3 30,-8 9,-4 15,-11 19,-20 3,-6 5,-16 5,-29l0 -11z"/>
   <path id="18" class="fil2" d="M7234 793l4 26c-9,2 -16,2 -23,2 -10,0 -18,-1 -24,-5 -6,-3 -10,-7 -13,-13 -2,-5 -3,-17 -3,-35l0 -99 -22 0 0 -23 22 0 0 -43 29 -17 0 60 30 0 0 23 -30 0 0 101c0,9 1,14 2,16 1,3 2,5 5,6 2,1 5,2 10,2 3,0 7,0 13,-1z"/>
   <path id="19" class="fil2" d="M7269 819l0 -150 -26 0 0 -23 26 0 0 -18c0,-12 1,-20 4,-26 2,-8 7,-14 14,-18 7,-5 17,-8 30,-8 8,0 18,1 28,3l-5 26c-6,-1 -12,-2 -17,-2 -9,0 -15,2 -19,6 -4,4 -6,11 -6,21l0 16 34 0 0 23 -33 0 0 150 -30 0z"/>
   <path id="20" class="fil2" d="M7344 733c0,-32 9,-56 27,-71 15,-13 33,-20 54,-20 24,0 43,8 58,24 16,15 23,37 23,64 0,22 -3,40 -10,53 -7,12 -16,22 -29,29 -13,7 -27,11 -42,11 -24,0 -44,-8 -59,-23 -14,-16 -22,-38 -22,-67zm30 0c0,22 5,38 15,49 9,11 21,17 36,17 15,0 27,-6 37,-17 9,-11 14,-28 14,-50 0,-22 -5,-38 -15,-49 -9,-11 -21,-16 -36,-16 -15,0 -27,5 -36,16 -10,11 -15,28 -15,50z"/>
   <path id="21" class="fil2" d="M7540 819l0 -173 26 0 0 27c7,-13 13,-21 19,-25 6,-4 12,-6 19,-6 10,0 20,4 30,10l-10 27c-7,-4 -15,-6 -22,-6 -6,0 -12,2 -17,6 -5,3 -8,9 -11,16 -3,10 -5,21 -5,34l0 90 -29 0z"/>
   <path id="22" class="fil2" d="M7651 819l0 -173 27 0 0 25c5,-9 12,-16 21,-21 9,-5 20,-8 31,-8 13,0 23,3 32,8 8,6 14,13 17,23 14,-20 31,-31 53,-31 18,0 31,5 40,15 9,9 14,24 14,44l0 118 -29 0 0 -109c0,-11 -1,-20 -3,-25 -2,-5 -5,-9 -10,-12 -5,-4 -11,-5 -18,-5 -12,0 -22,4 -30,12 -9,8 -13,21 -13,39l0 100 -29 0 0 -112c0,-13 -2,-23 -7,-29 -5,-7 -13,-10 -23,-10 -9,0 -16,2 -23,6 -7,5 -12,11 -16,19 -3,9 -4,21 -4,36l0 90 -30 0z"/>
   <path id="23" class="fil3 str0" d="M3682 819l91 -239 35 0 97 239 -36 0 -27 -72 -101 0 -26 72 -33 0zm68 -98l82 0 -25 -66c-8,-20 -13,-37 -17,-50 -4,16 -8,31 -14,46l-26 70z"/>
   <path id="24" class="fil3 str0" d="M3926 819l0 -173 27 0 0 25c12,-19 31,-29 55,-29 10,0 20,2 28,6 9,4 16,9 20,15 4,6 7,13 9,21 1,6 2,15 2,29l0 106 -30 0 0 -105c0,-12 -1,-21 -3,-27 -2,-6 -6,-10 -12,-14 -6,-3 -13,-5 -20,-5 -13,0 -24,4 -33,12 -9,8 -13,23 -13,45l0 94 -30 0z"/>
   <path id="25" class="fil3 str0" d="M4111 886l-4 -27c7,1 12,2 17,2 7,0 12,-1 16,-3 4,-2 7,-5 9,-9 2,-3 5,-10 9,-22 1,-2 2,-4 3,-7l-66 -174 32 0 36 100c4,13 9,26 12,40 4,-13 8,-26 12,-39l37 -101 29 0 -65 176c-7,19 -12,32 -16,39 -6,10 -12,17 -18,21 -7,5 -15,7 -25,7 -5,0 -12,-1 -18,-3z"/>
   <polygon id="26" class="fil3 str0" points="4373,819 4373,580 4405,580 4405,791 4522,791 4522,819 "/>
   <path id="27" class="fil3 str0" d="M4670 797c-11,10 -22,16 -32,20 -10,4 -21,6 -32,6 -19,0 -34,-5 -44,-14 -10,-9 -15,-21 -15,-36 0,-8 1,-16 5,-23 4,-7 9,-12 15,-16 7,-5 14,-8 22,-10 5,-2 14,-3 26,-4 23,-3 41,-7 52,-11 0,-4 0,-6 0,-7 0,-12 -3,-20 -8,-25 -8,-7 -19,-10 -34,-10 -13,0 -24,2 -30,7 -7,5 -12,13 -15,26l-28 -4c2,-12 6,-22 12,-30 6,-8 15,-13 26,-17 12,-4 25,-7 40,-7 15,0 27,2 36,6 9,3 16,8 20,13 5,5 8,12 9,20 1,5 2,14 2,27l0 39c0,27 0,44 2,51 1,8 3,14 7,21l-31 0c-3,-6 -5,-13 -5,-22zm-3 -65c-10,5 -26,8 -48,11 -12,2 -20,4 -25,6 -5,2 -9,6 -12,10 -3,4 -4,9 -4,14 0,7 3,14 9,19 6,5 14,8 26,8 11,0 21,-3 30,-8 9,-4 15,-11 19,-20 3,-6 5,-16 5,-29l0 -11z"/>
   <path id="28" class="fil3 str0" d="M4742 819l0 -173 26 0 0 25c13,-19 31,-29 55,-29 11,0 20,2 29,6 9,4 15,9 20,15 4,6 7,13 9,21 1,6 1,15 1,29l0 106 -29 0 0 -105c0,-12 -1,-21 -3,-27 -3,-6 -7,-10 -13,-14 -5,-3 -12,-5 -20,-5 -12,0 -23,4 -32,12 -9,8 -14,23 -14,45l0 94 -29 0z"/>
   <path id="29" class="fil3 str0" d="M4922 833l28 4c1,9 5,16 10,20 7,5 17,8 30,8 14,0 24,-3 31,-8 8,-6 13,-13 15,-23 2,-6 3,-18 3,-38 -13,16 -29,23 -48,23 -24,0 -43,-8 -56,-26 -13,-17 -19,-37 -19,-61 0,-17 3,-32 9,-46 6,-14 14,-25 26,-32 11,-8 24,-12 40,-12 20,0 37,9 50,25l0 -21 27 0 0 150c0,26 -2,46 -8,57 -5,11 -14,20 -26,26 -12,7 -26,10 -44,10 -20,0 -37,-4 -50,-14 -12,-9 -19,-23 -18,-42zm24 -103c0,22 4,39 13,49 9,11 21,16 34,16 14,0 25,-5 34,-16 9,-10 14,-26 14,-48 0,-21 -5,-37 -14,-48 -10,-11 -21,-16 -34,-16 -13,0 -24,5 -33,16 -10,10 -14,26 -14,47z"/>
   <path id="30" class="fil3 str0" d="M5226 819l0 -26c-14,20 -32,30 -55,30 -10,0 -20,-2 -29,-6 -8,-4 -15,-9 -19,-15 -4,-6 -7,-13 -9,-21 -1,-6 -2,-15 -2,-28l0 -107 29 0 0 96c0,15 1,25 2,31 2,7 6,13 12,18 6,4 13,6 22,6 9,0 17,-2 25,-6 7,-5 13,-11 16,-19 3,-7 5,-19 5,-33l0 -93 29 0 0 173 -26 0z"/>
   <path id="31" class="fil3 str0" d="M5411 797c-11,10 -21,16 -31,20 -10,4 -21,6 -33,6 -19,0 -33,-5 -44,-14 -10,-9 -15,-21 -15,-36 0,-8 2,-16 6,-23 4,-7 9,-12 15,-16 6,-5 13,-8 21,-10 6,-2 15,-3 26,-4 24,-3 41,-7 53,-11 0,-4 0,-6 0,-7 0,-12 -3,-20 -9,-25 -7,-7 -18,-10 -33,-10 -14,0 -24,2 -31,7 -6,5 -11,13 -14,26l-29 -4c3,-12 7,-22 13,-30 6,-8 15,-13 26,-17 11,-4 24,-7 39,-7 15,0 27,2 36,6 10,3 16,8 21,13 4,5 7,12 9,20 1,5 1,14 1,27l0 39c0,27 1,44 2,51 1,8 4,14 7,21l-30 0c-3,-6 -5,-13 -6,-22zm-2 -65c-11,5 -27,8 -48,11 -12,2 -21,4 -26,6 -5,2 -9,6 -11,10 -3,4 -5,9 -5,14 0,7 3,14 9,19 6,5 15,8 26,8 12,0 22,-3 30,-8 9,-4 16,-11 20,-20 3,-6 5,-16 5,-29l0 -11z"/>
   <path id="32" class="fil3 str0" d="M5478 833l28 4c2,9 5,16 10,20 8,5 18,8 30,8 14,0 24,-3 32,-8 7,-6 12,-13 15,-23 1,-6 2,-18 2,-38 -13,16 -29,23 -48,23 -24,0 -42,-8 -55,-26 -13,-17 -20,-37 -20,-61 0,-17 3,-32 9,-46 6,-14 15,-25 26,-32 11,-8 25,-12 40,-12 20,0 37,9 50,25l0 -21 27 0 0 150c0,26 -2,46 -8,57 -5,11 -14,20 -26,26 -12,7 -26,10 -44,10 -20,0 -37,-4 -50,-14 -12,-9 -18,-23 -18,-42zm24 -103c0,22 5,39 14,49 9,11 20,16 33,16 14,0 25,-5 34,-16 10,-10 14,-26 14,-48 0,-21 -5,-37 -14,-48 -9,-11 -21,-16 -34,-16 -13,0 -24,5 -33,16 -9,10 -14,26 -14,47z"/>
   <path id="33" class="fil3 str0" d="M5787 763l30 4c-5,18 -13,31 -26,41 -13,10 -30,15 -50,15 -25,0 -45,-8 -60,-24 -14,-15 -22,-37 -22,-65 0,-29 8,-51 23,-67 15,-17 34,-25 58,-25 23,0 42,8 56,24 15,16 22,38 22,66 0,2 0,5 0,8l-129 0c1,19 7,34 16,44 10,10 22,15 36,15 11,0 20,-3 28,-9 7,-5 13,-14 18,-27zm-96 -47l96 0c-1,-14 -5,-25 -11,-33 -9,-11 -21,-17 -36,-17 -14,0 -25,5 -34,14 -9,9 -14,21 -15,36z"/>
   <path id="34" class="fil3 str0" d="M5862 819l0 -33 33 0 0 33c0,12 -2,22 -6,30 -5,7 -12,13 -21,17l-8 -12c6,-3 11,-7 14,-12 3,-5 4,-13 5,-23l-17 0z"/>
   <path id="35" class="fil3 str0" d="M5999 819l91 -239 35 0 97 239 -36 0 -28 -72 -100 0 -26 72 -33 0zm68 -98l82 0 -25 -66c-8,-20 -13,-37 -17,-50 -4,16 -8,31 -14,46l-26 70z"/>
   <path id="36" class="fil3 str0" d="M6243 819l0 -173 27 0 0 25c12,-19 31,-29 55,-29 10,0 20,2 28,6 9,4 16,9 20,15 4,6 7,13 9,21 1,6 2,15 2,29l0 106 -30 0 0 -105c0,-12 -1,-21 -3,-27 -2,-6 -6,-10 -12,-14 -6,-3 -13,-5 -20,-5 -13,0 -24,4 -33,12 -9,8 -13,23 -13,45l0 94 -30 0z"/>
   <path id="37" class="fil3 str0" d="M6427 886l-3 -27c7,1 12,2 17,2 6,0 12,-1 16,-3 4,-2 7,-5 9,-9 2,-3 5,-10 9,-22 1,-2 2,-4 3,-7l-66 -174 31 0 37 100c4,13 8,26 12,40 4,-13 8,-26 12,-39l37 -101 29 0 -65 176c-7,19 -13,32 -16,39 -6,10 -12,17 -18,21 -7,5 -15,7 -25,7 -5,0 -12,-1 -19,-3z"/>
   <path id="38" class="fil3 str0" d="M6692 819l0 -239 90 0c16,0 28,1 36,3 12,2 22,5 30,11 8,5 14,13 19,23 5,10 7,21 7,32 0,21 -6,38 -19,52 -13,14 -37,21 -70,21l-62 0 0 97 -31 0zm31 -125l62 0c21,0 35,-4 44,-12 8,-7 12,-18 12,-32 0,-10 -2,-18 -7,-25 -5,-7 -12,-12 -20,-14 -5,-2 -15,-3 -30,-3l-61 0 0 86z"/>
   <polygon id="39" class="fil3 str0" points="6910,819 6910,580 6939,580 6939,819 "/>
   <path id="40" class="fil3 str0" d="M7097 797c-10,10 -21,16 -31,20 -10,4 -21,6 -32,6 -19,0 -34,-5 -44,-14 -10,-9 -16,-21 -16,-36 0,-8 2,-16 6,-23 4,-7 9,-12 15,-16 7,-5 14,-8 22,-10 5,-2 14,-3 26,-4 23,-3 41,-7 52,-11 0,-4 0,-6 0,-7 0,-12 -3,-20 -8,-25 -8,-7 -19,-10 -34,-10 -13,0 -24,2 -30,7 -7,5 -12,13 -15,26l-29 -4c3,-12 7,-22 13,-30 6,-8 15,-13 26,-17 12,-4 25,-7 40,-7 14,0 27,2 36,6 9,3 16,8 20,13 5,5 8,12 9,20 1,5 2,14 2,27l0 39c0,27 0,44 2,51 1,8 3,14 7,21l-31 0c-3,-6 -5,-13 -6,-22zm-2 -65c-11,5 -27,8 -48,11 -12,2 -21,4 -26,6 -5,2 -8,6 -11,10 -3,4 -4,9 -4,14 0,7 3,14 9,19 6,5 14,8 26,8 11,0 21,-3 30,-8 9,-4 15,-11 19,-20 3,-6 5,-16 5,-29l0 -11z"/>
   <path id="41" class="fil3 str0" d="M7234 793l4 26c-9,2 -16,2 -23,2 -10,0 -18,-1 -24,-5 -6,-3 -10,-7 -13,-13 -2,-5 -3,-17 -3,-35l0 -99 -22 0 0 -23 22 0 0 -43 29 -17 0 60 30 0 0 23 -30 0 0 101c0,9 1,14 2,16 1,3 2,5 5,6 2,1 5,2 10,2 3,0 7,0 13,-1z"/>
   <path id="42" class="fil3 str0" d="M7269 819l0 -150 -26 0 0 -23 26 0 0 -18c0,-12 1,-20 4,-26 2,-8 7,-14 14,-18 7,-5 17,-8 30,-8 8,0 18,1 28,3l-5 26c-6,-1 -12,-2 -17,-2 -9,0 -15,2 -19,6 -4,4 -6,11 -6,21l0 16 34 0 0 23 -33 0 0 150 -30 0z"/>
   <path id="43" class="fil3 str0" d="M7344 733c0,-32 9,-56 27,-71 15,-13 33,-20 54,-20 24,0 43,8 58,24 16,15 23,37 23,64 0,22 -3,40 -10,53 -7,12 -16,22 -29,29 -13,7 -27,11 -42,11 -24,0 -44,-8 -59,-23 -14,-16 -22,-38 -22,-67zm30 0c0,22 5,38 15,49 9,11 21,17 36,17 15,0 27,-6 37,-17 9,-11 14,-28 14,-50 0,-22 -5,-38 -15,-49 -9,-11 -21,-16 -36,-16 -15,0 -27,5 -36,16 -10,11 -15,28 -15,50z"/>
   <path id="44" class="fil3 str0" d="M7540 819l0 -173 26 0 0 27c7,-13 13,-21 19,-25 6,-4 12,-6 19,-6 10,0 20,4 30,10l-10 27c-7,-4 -15,-6 -22,-6 -6,0 -12,2 -17,6 -5,3 -8,9 -11,16 -3,10 -5,21 -5,34l0 90 -29 0z"/>
   <path id="45" class="fil3 str0" d="M7651 819l0 -173 27 0 0 25c5,-9 12,-16 21,-21 9,-5 20,-8 31,-8 13,0 23,3 32,8 8,6 14,13 17,23 14,-20 31,-31 53,-31 18,0 31,5 40,15 9,9 14,24 14,44l0 118 -29 0 0 -109c0,-11 -1,-20 -3,-25 -2,-5 -5,-9 -10,-12 -5,-4 -11,-5 -18,-5 -12,0 -22,4 -30,12 -9,8 -13,21 -13,39l0 100 -29 0 0 -112c0,-13 -2,-23 -7,-29 -5,-7 -13,-10 -23,-10 -9,0 -16,2 -23,6 -7,5 -12,11 -16,19 -3,9 -4,21 -4,36l0 90 -30 0z"/>
   <polygon class="fil2" points="1260,852 1260,641 1181,641 1181,613 1370,613 1370,641 1292,641 1292,852 "/>
   <path id="1" class="fil2" d="M1480 796l31 4c-5,18 -14,31 -27,41 -13,10 -29,15 -49,15 -25,0 -45,-8 -60,-24 -15,-15 -22,-37 -22,-65 0,-29 7,-51 22,-67 15,-17 35,-25 58,-25 23,0 42,8 57,24 14,16 22,38 22,66 0,2 0,5 0,8l-129 0c1,19 6,34 16,44 10,10 22,15 36,15 11,0 20,-3 27,-9 8,-5 14,-14 18,-27zm-96 -47l97 0c-1,-14 -5,-25 -11,-33 -10,-11 -22,-17 -36,-17 -14,0 -25,5 -34,14 -9,9 -15,21 -16,36z"/>
   <path id="2" class="fil2" d="M1661 830c-11,10 -22,16 -32,20 -10,4 -20,6 -32,6 -19,0 -34,-5 -44,-14 -10,-9 -15,-21 -15,-36 0,-8 2,-16 6,-23 4,-7 9,-12 15,-16 6,-5 13,-8 21,-10 6,-2 14,-3 26,-4 24,-3 41,-7 52,-11 0,-4 1,-6 1,-7 0,-12 -3,-20 -9,-25 -7,-7 -18,-10 -33,-10 -14,0 -24,2 -31,7 -6,5 -11,13 -14,26l-29 -4c2,-12 7,-22 13,-30 6,-8 14,-13 26,-17 11,-4 24,-7 39,-7 15,0 27,2 36,6 9,3 16,8 21,13 4,5 7,12 9,20 1,5 1,14 1,27l0 39c0,27 1,44 2,51 1,8 4,14 7,21l-30 0c-3,-6 -5,-13 -6,-22zm-2 -65c-11,5 -27,8 -48,11 -13,2 -21,4 -26,6 -5,2 -9,6 -12,10 -2,4 -4,9 -4,14 0,7 3,14 9,19 6,5 15,8 26,8 11,0 21,-3 30,-8 9,-4 16,-11 20,-20 3,-6 4,-16 4,-29l1 -11z"/>
   <path id="3" class="fil2" d="M1733 852l0 -173 27 0 0 25c5,-9 12,-16 21,-21 9,-5 19,-8 31,-8 13,0 23,3 31,8 9,6 14,13 18,23 13,-20 31,-31 53,-31 17,0 31,5 40,15 9,9 14,24 14,44l0 118 -29 0 0 -109c0,-11 -1,-20 -3,-25 -2,-5 -6,-9 -11,-12 -5,-4 -11,-5 -17,-5 -13,0 -23,4 -31,12 -8,8 -12,21 -12,39l0 100 -29 0 0 -112c0,-13 -2,-23 -7,-29 -5,-7 -13,-10 -24,-10 -8,0 -16,2 -23,6 -7,5 -12,11 -15,19 -3,9 -4,21 -4,36l0 90 -30 0z"/>
   <path id="4" class="fil2" d="M2097 775l30 -2c1,12 4,22 9,29 6,8 14,14 24,19 11,5 23,7 37,7 12,0 23,-2 32,-5 9,-4 16,-9 20,-15 5,-6 7,-13 7,-21 0,-7 -2,-13 -6,-19 -5,-6 -12,-10 -22,-14 -6,-3 -20,-6 -42,-12 -22,-5 -38,-10 -46,-15 -12,-6 -20,-13 -26,-22 -5,-9 -8,-19 -8,-30 0,-12 3,-23 10,-33 7,-11 17,-19 30,-24 13,-6 28,-9 44,-9 18,0 33,3 47,9 13,6 24,14 31,25 7,11 11,24 12,38l-31 2c-1,-15 -7,-26 -16,-34 -10,-8 -24,-12 -42,-12 -19,0 -33,4 -42,11 -8,7 -13,15 -13,25 0,9 3,16 9,21 7,6 22,12 48,17 26,6 43,11 53,16 14,6 24,14 31,24 6,10 10,21 10,34 0,13 -4,24 -11,36 -8,11 -18,20 -32,26 -13,6 -29,9 -46,9 -21,0 -39,-3 -54,-9 -14,-7 -26,-16 -34,-29 -8,-12 -13,-27 -13,-43z"/>
   <path id="5" class="fil2" d="M2444 796l30 4c-5,18 -13,31 -26,41 -13,10 -30,15 -50,15 -25,0 -45,-8 -60,-24 -14,-15 -22,-37 -22,-65 0,-29 8,-51 23,-67 15,-17 34,-25 58,-25 23,0 42,8 56,24 15,16 22,38 22,66 0,2 0,5 0,8l-129 0c1,19 7,34 16,44 10,10 22,15 36,15 11,0 20,-3 28,-9 7,-5 13,-14 18,-27zm-96 -47l96 0c-1,-14 -5,-25 -11,-33 -9,-11 -21,-17 -36,-17 -14,0 -25,5 -34,14 -9,9 -14,21 -15,36z"/>
   <path id="6" class="fil2" d="M2511 852l0 -173 26 0 0 27c7,-13 13,-21 19,-25 6,-4 12,-6 19,-6 10,0 20,4 30,10l-11 27c-7,-4 -14,-6 -21,-6 -6,0 -12,2 -17,6 -5,3 -9,9 -11,16 -3,10 -5,21 -5,34l0 90 -29 0z"/>
   <path id="7" class="fil2" d="M2670 852l-66 -173 32 0 37 104c4,11 7,23 11,35 2,-10 6,-20 11,-33l38 -106 30 0 -65 173 -28 0z"/>
   <path id="8" class="fil2" d="M2789 647l0 -34 29 0 0 34 -29 0zm0 205l0 -173 29 0 0 173 -29 0z"/>
   <path id="9" class="fil2" d="M2976 789l29 4c-4,20 -12,35 -24,46 -13,11 -29,17 -48,17 -24,0 -43,-8 -57,-23 -15,-16 -22,-38 -22,-67 0,-18 3,-35 10,-49 6,-14 15,-24 28,-31 12,-7 26,-11 41,-11 19,0 34,5 46,15 12,9 20,23 23,40l-28 4c-3,-11 -8,-20 -15,-26 -7,-6 -15,-9 -25,-9 -15,0 -27,6 -36,16 -9,11 -14,28 -14,50 0,24 5,41 14,51 9,11 20,16 34,16 12,0 22,-4 29,-11 8,-7 13,-18 15,-32z"/>
   <path id="10" class="fil2" d="M3148 796l30 4c-5,18 -14,31 -26,41 -13,10 -30,15 -50,15 -25,0 -45,-8 -60,-24 -15,-15 -22,-37 -22,-65 0,-29 7,-51 22,-67 15,-17 35,-25 59,-25 23,0 41,8 56,24 15,16 22,38 22,66 0,2 0,5 0,8l-129 0c1,19 6,34 16,44 10,10 22,15 36,15 11,0 20,-3 28,-9 7,-5 13,-14 18,-27zm-96 -47l96 0c-1,-14 -5,-25 -11,-33 -9,-11 -21,-17 -36,-17 -14,0 -25,5 -34,14 -9,9 -14,21 -15,36z"/>
   <path id="11" class="fil2" d="M3203 800l29 -4c2,11 7,20 14,27 7,6 18,9 31,9 14,0 24,-3 30,-8 7,-6 10,-12 10,-20 0,-6 -3,-12 -9,-15 -4,-3 -14,-6 -30,-10 -21,-6 -36,-10 -44,-14 -9,-4 -15,-10 -19,-17 -4,-7 -7,-14 -7,-23 0,-8 2,-15 6,-21 3,-7 8,-12 14,-17 5,-3 11,-6 19,-8 8,-2 16,-4 25,-4 13,0 25,2 36,6 10,4 17,10 22,16 5,7 9,16 10,27l-28 4c-2,-9 -5,-16 -12,-21 -6,-5 -15,-8 -26,-8 -13,0 -23,3 -29,7 -5,5 -8,10 -8,16 0,4 1,7 3,10 3,3 6,6 11,8 3,1 12,3 26,7 21,6 35,10 44,14 8,3 14,9 19,15 5,7 7,15 7,25 0,10 -3,19 -9,28 -5,8 -13,15 -24,20 -11,4 -23,7 -37,7 -22,0 -39,-5 -51,-14 -12,-9 -19,-23 -23,-42z"/>
   <polygon id="12" class="fil3 str0" points="1260,852 1260,641 1181,641 1181,613 1370,613 1370,641 1292,641 1292,852 "/>
   <path id="13" class="fil3 str0" d="M1480 796l31 4c-5,18 -14,31 -27,41 -13,10 -29,15 -49,15 -25,0 -45,-8 -60,-24 -15,-15 -22,-37 -22,-65 0,-29 7,-51 22,-67 15,-17 35,-25 58,-25 23,0 42,8 57,24 14,16 22,38 22,66 0,2 0,5 0,8l-129 0c1,19 6,34 16,44 10,10 22,15 36,15 11,0 20,-3 27,-9 8,-5 14,-14 18,-27zm-96 -47l97 0c-1,-14 -5,-25 -11,-33 -10,-11 -22,-17 -36,-17 -14,0 -25,5 -34,14 -9,9 -15,21 -16,36z"/>
   <path id="14" class="fil3 str0" d="M1661 830c-11,10 -22,16 -32,20 -10,4 -20,6 -32,6 -19,0 -34,-5 -44,-14 -10,-9 -15,-21 -15,-36 0,-8 2,-16 6,-23 4,-7 9,-12 15,-16 6,-5 13,-8 21,-10 6,-2 14,-3 26,-4 24,-3 41,-7 52,-11 0,-4 1,-6 1,-7 0,-12 -3,-20 -9,-25 -7,-7 -18,-10 -33,-10 -14,0 -24,2 -31,7 -6,5 -11,13 -14,26l-29 -4c2,-12 7,-22 13,-30 6,-8 14,-13 26,-17 11,-4 24,-7 39,-7 15,0 27,2 36,6 9,3 16,8 21,13 4,5 7,12 9,20 1,5 1,14 1,27l0 39c0,27 1,44 2,51 1,8 4,14 7,21l-30 0c-3,-6 -5,-13 -6,-22zm-2 -65c-11,5 -27,8 -48,11 -13,2 -21,4 -26,6 -5,2 -9,6 -12,10 -2,4 -4,9 -4,14 0,7 3,14 9,19 6,5 15,8 26,8 11,0 21,-3 30,-8 9,-4 16,-11 20,-20 3,-6 4,-16 4,-29l1 -11z"/>
   <path id="15" class="fil3 str0" d="M1733 852l0 -173 27 0 0 25c5,-9 12,-16 21,-21 9,-5 19,-8 31,-8 13,0 23,3 31,8 9,6 14,13 18,23 13,-20 31,-31 53,-31 17,0 31,5 40,15 9,9 14,24 14,44l0 118 -29 0 0 -109c0,-11 -1,-20 -3,-25 -2,-5 -6,-9 -11,-12 -5,-4 -11,-5 -17,-5 -13,0 -23,4 -31,12 -8,8 -12,21 -12,39l0 100 -29 0 0 -112c0,-13 -2,-23 -7,-29 -5,-7 -13,-10 -24,-10 -8,0 -16,2 -23,6 -7,5 -12,11 -15,19 -3,9 -4,21 -4,36l0 90 -30 0z"/>
   <path id="16" class="fil3 str0" d="M2097 775l30 -2c1,12 4,22 9,29 6,8 14,14 24,19 11,5 23,7 37,7 12,0 23,-2 32,-5 9,-4 16,-9 20,-15 5,-6 7,-13 7,-21 0,-7 -2,-13 -6,-19 -5,-6 -12,-10 -22,-14 -6,-3 -20,-6 -42,-12 -22,-5 -38,-10 -46,-15 -12,-6 -20,-13 -26,-22 -5,-9 -8,-19 -8,-30 0,-12 3,-23 10,-33 7,-11 17,-19 30,-24 13,-6 28,-9 44,-9 18,0 33,3 47,9 13,6 24,14 31,25 7,11 11,24 12,38l-31 2c-1,-15 -7,-26 -16,-34 -10,-8 -24,-12 -42,-12 -19,0 -33,4 -42,11 -8,7 -13,15 -13,25 0,9 3,16 9,21 7,6 22,12 48,17 26,6 43,11 53,16 14,6 24,14 31,24 6,10 10,21 10,34 0,13 -4,24 -11,36 -8,11 -18,20 -32,26 -13,6 -29,9 -46,9 -21,0 -39,-3 -54,-9 -14,-7 -26,-16 -34,-29 -8,-12 -13,-27 -13,-43z"/>
   <path id="17" class="fil3 str0" d="M2444 796l30 4c-5,18 -13,31 -26,41 -13,10 -30,15 -50,15 -25,0 -45,-8 -60,-24 -14,-15 -22,-37 -22,-65 0,-29 8,-51 23,-67 15,-17 34,-25 58,-25 23,0 42,8 56,24 15,16 22,38 22,66 0,2 0,5 0,8l-129 0c1,19 7,34 16,44 10,10 22,15 36,15 11,0 20,-3 28,-9 7,-5 13,-14 18,-27zm-96 -47l96 0c-1,-14 -5,-25 -11,-33 -9,-11 -21,-17 -36,-17 -14,0 -25,5 -34,14 -9,9 -14,21 -15,36z"/>
   <path id="18" class="fil3 str0" d="M2511 852l0 -173 26 0 0 27c7,-13 13,-21 19,-25 6,-4 12,-6 19,-6 10,0 20,4 30,10l-11 27c-7,-4 -14,-6 -21,-6 -6,0 -12,2 -17,6 -5,3 -9,9 -11,16 -3,10 -5,21 -5,34l0 90 -29 0z"/>
   <path id="19" class="fil3 str0" d="M2670 852l-66 -173 32 0 37 104c4,11 7,23 11,35 2,-10 6,-20 11,-33l38 -106 30 0 -65 173 -28 0z"/>
   <path id="20" class="fil3 str0" d="M2789 647l0 -34 29 0 0 34 -29 0zm0 205l0 -173 29 0 0 173 -29 0z"/>
   <path id="21" class="fil3 str0" d="M2976 789l29 4c-4,20 -12,35 -24,46 -13,11 -29,17 -48,17 -24,0 -43,-8 -57,-23 -15,-16 -22,-38 -22,-67 0,-18 3,-35 10,-49 6,-14 15,-24 28,-31 12,-7 26,-11 41,-11 19,0 34,5 46,15 12,9 20,23 23,40l-28 4c-3,-11 -8,-20 -15,-26 -7,-6 -15,-9 -25,-9 -15,0 -27,6 -36,16 -9,11 -14,28 -14,50 0,24 5,41 14,51 9,11 20,16 34,16 12,0 22,-4 29,-11 8,-7 13,-18 15,-32z"/>
   <path id="22" class="fil3 str0" d="M3148 796l30 4c-5,18 -14,31 -26,41 -13,10 -30,15 -50,15 -25,0 -45,-8 -60,-24 -15,-15 -22,-37 -22,-65 0,-29 7,-51 22,-67 15,-17 35,-25 59,-25 23,0 41,8 56,24 15,16 22,38 22,66 0,2 0,5 0,8l-129 0c1,19 6,34 16,44 10,10 22,15 36,15 11,0 20,-3 28,-9 7,-5 13,-14 18,-27zm-96 -47l96 0c-1,-14 -5,-25 -11,-33 -9,-11 -21,-17 -36,-17 -14,0 -25,5 -34,14 -9,9 -14,21 -15,36z"/>
   <path id="23" class="fil3 str0" d="M3203 800l29 -4c2,11 7,20 14,27 7,6 18,9 31,9 14,0 24,-3 30,-8 7,-6 10,-12 10,-20 0,-6 -3,-12 -9,-15 -4,-3 -14,-6 -30,-10 -21,-6 -36,-10 -44,-14 -9,-4 -15,-10 -19,-17 -4,-7 -7,-14 -7,-23 0,-8 2,-15 6,-21 3,-7 8,-12 14,-17 5,-3 11,-6 19,-8 8,-2 16,-4 25,-4 13,0 25,2 36,6 10,4 17,10 22,16 5,7 9,16 10,27l-28 4c-2,-9 -5,-16 -12,-21 -6,-5 -15,-8 -26,-8 -13,0 -23,3 -29,7 -5,5 -8,10 -8,16 0,4 1,7 3,10 3,3 6,6 11,8 3,1 12,3 26,7 21,6 35,10 44,14 8,3 14,9 19,15 5,7 7,15 7,25 0,10 -3,19 -9,28 -5,8 -13,15 -24,20 -11,4 -23,7 -37,7 -22,0 -39,-5 -51,-14 -12,-9 -19,-23 -23,-42z"/>
  </g>
 </g>
</svg>
